<svg width="349" height="340" viewBox="0 0 349 340" fill="none" xmlns="http://www.w3.org/2000/svg">
<path d="M346 165.375C344.876 218.067 325.438 260.736 285.359 293.663C273.351 303.525 261.866 314.032 247.971 321.318C209.699 341.364 169.941 343.336 130.383 327.275C70.586 302.962 29.6634 259.206 9.26236 197.94C-8.0464 145.973 6.12985 101.131 45.9681 64.3389C60.9476 50.4917 76.1279 36.6848 94.4005 27.1447C107.211 20.4626 119.942 13.2168 133.516 8.42666C159.339 -0.710898 185.844 0.778444 212.068 7.38003C248.613 16.5578 280.701 33.7865 306.322 61.8835C328.651 86.3979 341.141 115.501 344.715 148.429C345.357 154.426 345.598 160.465 345.92 165.335L346 165.375ZM70.4252 48.8011C66.5699 51.6591 62.1524 53.9937 58.8995 57.4555C31.7516 86.3575 20.6275 120.372 27.2137 159.78C31.3099 184.295 41.2294 206.474 54.9639 226.923C79.5415 263.393 111.067 291.812 152.552 307.591C190.824 322.163 228.855 321.277 265.962 302.72C275.801 297.809 283.913 291.087 290.58 282.272C303.11 265.607 312.427 247.412 317.366 227.165C330.137 174.956 322.065 126.652 287.006 85.0696C256.123 48.4389 215.08 29.6807 168.133 23.4011C166.125 23.1193 163.595 24.5281 161.788 25.8162C159.74 27.3056 158.053 28.4729 155.282 28.2313C134.038 26.2992 113.677 30.204 93.7981 37.5301C88.0553 39.6233 83.5173 42.8838 79.8227 47.7948C63.5982 69.3304 54.2812 93.1203 56.0482 120.493C56.9317 133.817 61.269 146.376 65.7668 158.814C69.1001 168.032 69.1001 168.113 61.8714 174.473C57.0121 178.78 51.992 182.886 46.9721 187.153C30.1452 149.435 18.9408 102.539 70.4654 48.6802L70.4252 48.8011Z" fill="white" stroke="black" stroke-width="4"/>
</svg>
