<svg width="199" height="157" viewBox="0 0 199 157" fill="none" xmlns="http://www.w3.org/2000/svg">
<path d="M96.5232 111.542C111.1 110.239 124.82 113.526 134.903 124.454C139.279 127.031 134.578 133.754 130.763 130.14C97.913 117.731 49.7758 144.948 17.1619 154.514C11.1004 158.068 -3.29938 141.098 4.03356 137.041C17.7828 129.341 30.0241 116.369 45.4293 112.845C61.9579 94.1572 84.9917 78.4609 91.2602 52.2214C95.5476 47.7494 105.216 56.9894 110.302 58.5886C112.431 59.8325 110.923 63.7418 108.646 65.3115C107.789 73.2781 103.265 78.9643 99.9829 86.3979C121.804 73.3077 141.497 56.6636 156.429 37.4429C165.536 28.6175 173.164 6.08004 184.046 3C188.008 5.66542 199.539 6.37609 196.494 13.0692C174.406 54.6201 140.077 92.3505 96.2276 110.92C96.3459 111.127 96.4346 111.364 96.5528 111.571L96.5232 111.542ZM73.0166 115.066C73.1348 115.332 73.2827 115.629 73.401 115.895C79.2259 114.74 84.9621 113.378 90.4618 111.216C88.4807 108.995 87.3571 105.648 84.7551 104.167C80.8225 107.81 76.9195 111.423 72.987 115.066L73.0166 115.066Z" fill="white" stroke="black" stroke-width="4"/>
</svg>
