<svg width="199" height="157" viewBox="0 0 199 157" fill="none" xmlns="http://www.w3.org/2000/svg">
<path d="M96.5232 45.4584C111.1 46.7615 124.82 43.4742 134.903 32.546C139.279 29.9694 134.578 23.2465 130.763 26.8596C97.913 39.2686 49.7758 12.0518 17.1619 2.48592C11.1004 -1.06797 -3.29938 15.9019 4.03356 19.9593C17.7828 27.6594 30.0241 40.631 45.4293 44.1553C61.9579 62.8428 84.9917 78.5391 91.2602 104.779C95.5476 109.251 105.216 100.011 110.302 98.4114C112.431 97.1675 110.923 93.2582 108.646 91.6885C107.789 83.7219 103.265 78.0357 99.9829 70.6021C121.804 83.6923 141.497 100.336 156.429 119.557C165.536 128.383 173.164 150.92 184.046 154C188.008 151.335 199.539 150.624 196.494 143.931C174.406 102.38 140.077 64.6495 96.2276 46.0804C96.3459 45.8731 96.4346 45.6361 96.5528 45.4288L96.5232 45.4584ZM73.0166 41.9341C73.1348 41.6676 73.2827 41.3713 73.401 41.1048C79.2259 42.2598 84.9621 43.6222 90.4618 45.7841C88.4807 48.0053 87.3571 51.3519 84.7551 52.8327C80.8225 49.19 76.9195 45.5769 72.987 41.9341L73.0166 41.9341Z" fill="white" stroke="black" stroke-width="4"/>
</svg>
