<svg width="422" height="240" viewBox="0 0 422 240" fill="none" xmlns="http://www.w3.org/2000/svg">
<path d="M410.93 53.7253C405.16 44.4471 397.997 38.3161 390.737 33.0435C382.84 27.3622 374.748 22.7026 366.437 18.9832C348.688 11.0538 330.353 6.51689 312.042 4.10538C275.616 -0.717635 238.946 3.45141 202.691 9.50063C189.221 11.7486 175.751 14.3645 162.33 17.3891C140.645 13.1383 118.594 14.8141 97.1543 22.2121C81.5328 27.6074 66.3513 36.2725 51.9276 47.6761C38.1885 58.5483 23.8382 71.8729 13.6194 91.0832C2.83838 111.315 -2.02656 138.292 5.96757 163.388C13.8639 188.157 30.1455 199.601 45.5715 206.304C63.5399 214.111 81.9239 218.934 100.332 223.021C118.839 227.15 137.394 230.787 155.973 233.853C174.7 236.959 193.548 239.003 212.372 237.49C230.39 236.06 248.309 231.278 265.862 224.248C283.171 217.299 300.137 208.103 316.858 197.966C333.458 187.871 350.033 177.203 366.094 164.941C381.08 153.456 397.337 140.376 409.512 121.452C415.379 112.337 419.975 100.116 420 86.3011C420.048 73.7939 416.235 62.2677 410.93 53.7661V53.7253ZM398.315 105.348C392.717 113.604 385.921 120.021 379.467 126.152C365.532 139.395 350.791 150.022 335.878 159.832C320.403 170.009 304.806 179.655 288.964 188.034C256.426 205.16 223.422 215.051 189.246 213.294C171.839 212.394 154.507 209.329 137.223 206.018C119.914 202.708 102.606 199.479 85.3954 194.901C69.4316 190.65 52.5877 186.358 37.4551 176.467C26.454 169.273 14.1328 152.842 16.8464 130.607C19.3889 109.721 31.6611 95.1297 41.8066 84.7479C48.3828 78.0448 55.1791 72.0364 62.1953 66.8047C63.7844 69.3388 66.058 70.7693 68.8205 69.7475C99.8191 58.4257 131.062 49.0658 162.501 41.9947C164.163 42.3626 165.85 42.7713 167.512 43.2209C174.675 45.1419 181.765 47.8396 188.732 51.1503C195.211 54.2158 199.024 43.0983 197.435 34.9237C223.007 30.3459 248.7 27.1169 274.394 26.7082C307.593 26.1768 341.696 30.4685 373.379 48.1257C380.591 52.1312 387.779 56.8316 394.306 63.3713C398.706 67.7447 403.938 74.0392 405.136 82.8678C406.407 92.1051 402.129 99.7892 398.315 105.43V105.348Z" fill="white" stroke="black" stroke-width="4"/>
</svg>
