<svg width="199" height="595" viewBox="0 0 199 595" fill="none" xmlns="http://www.w3.org/2000/svg">
<path d="M102.477 111.542C87.8996 110.239 74.1797 113.526 64.0969 124.454C59.7208 127.031 64.4223 133.754 68.2366 130.14C101.087 117.731 149.224 144.948 181.838 154.514C187.9 158.068 202.299 141.098 194.966 137.041C181.217 129.341 168.976 116.369 153.571 112.845C137.042 94.1572 114.008 78.4609 107.74 52.2214C103.452 47.7494 93.7836 56.9894 88.6978 58.5886C86.5689 59.8325 88.0769 63.7418 90.3536 65.3115C91.2111 73.2781 95.7351 78.9643 99.0171 86.3979C77.1957 73.3077 57.5033 56.6636 42.5713 37.4429C33.4642 28.6175 25.8355 6.08004 14.9544 3C10.9922 5.66542 -0.539485 6.37609 2.50605 13.0692C24.5936 54.6201 58.9225 92.3505 102.772 110.92C102.654 111.127 102.565 111.364 102.447 111.571L102.477 111.542ZM125.983 115.066C125.865 115.332 125.717 115.629 125.599 115.895C119.774 114.74 114.038 113.378 108.538 111.216C110.519 108.995 111.643 105.648 114.245 104.167C118.177 107.81 122.08 111.423 126.013 115.066L125.983 115.066Z" fill="white" stroke="black" stroke-width="4"/>
<path d="M102.477 483.458C87.8996 484.761 74.1797 481.474 64.0969 470.546C59.7208 467.969 64.4223 461.246 68.2366 464.86C101.087 477.269 149.224 450.052 181.838 440.486C187.9 436.932 202.299 453.902 194.966 457.959C181.217 465.659 168.976 478.631 153.571 482.155C137.042 500.843 114.008 516.539 107.74 542.779C103.452 547.251 93.7836 538.011 88.6978 536.411C86.5689 535.168 88.0769 531.258 90.3536 529.689C91.2111 521.722 95.7351 516.036 99.0171 508.602C77.1957 521.692 57.5033 538.336 42.5713 557.557C33.4642 566.383 25.8355 588.92 14.9544 592C10.9922 589.335 -0.539485 588.624 2.50605 581.931C24.5936 540.38 58.9225 502.649 102.772 484.08C102.654 483.873 102.565 483.636 102.447 483.429L102.477 483.458ZM125.983 479.934C125.865 479.668 125.717 479.371 125.599 479.105C119.774 480.26 114.038 481.622 108.538 483.784C110.519 486.005 111.643 489.352 114.245 490.833C118.177 487.19 122.08 483.577 126.013 479.934L125.983 479.934Z" fill="white" stroke="black" stroke-width="4"/>
</svg>
