<svg width="398" height="324" viewBox="0 0 398 324" fill="none" xmlns="http://www.w3.org/2000/svg">
<path d="M0 323.912H397.113V0H0V323.912Z" fill="#FFB200"/>
<path d="M53.0703 276.332H345.872V54.9007H53.0703V276.332Z" fill="#008D5E"/>
<path d="M53 275.912H346V54.9124H53V275.912Z" fill="black"/>
<path d="M2 322L54.2854 276L102.5 322L151.061 276L199.276 322L247.837 276L296.051 322L344.612 276L395 322" stroke="black" stroke-width="4" stroke-linecap="round" stroke-linejoin="round"/>
<path d="M344 57L395 2" stroke="black" stroke-width="4" stroke-linecap="round" stroke-linejoin="round"/>
<path d="M55 56L2 2" stroke="black" stroke-width="4" stroke-linecap="round" stroke-linejoin="round"/>
<path d="M164.877 15.9124H205.786L223.594 42.9124H182.684L164.877 15.9124Z" fill="white" stroke="black" stroke-width="4"/>
<path d="M217.82 15.9124H258.73L276.537 42.9124H235.628L217.82 15.9124Z" fill="white" stroke="black" stroke-width="4"/>
<path d="M270.76 15.9124H311.669L329.476 42.9124H288.567L270.76 15.9124Z" fill="white" stroke="black" stroke-width="4"/>
<path d="M111.936 15.9124H152.845L170.652 42.9124H129.743L111.936 15.9124Z" fill="white" stroke="black" stroke-width="4"/>
<path d="M57 15.9124H97.9092L115.717 42.9124H74.8075L57 15.9124Z" fill="white" stroke="black" stroke-width="4"/>
</svg>
