<svg width="535" height="520" viewBox="0 0 535 520" fill="none" xmlns="http://www.w3.org/2000/svg">
<circle cx="28.1815" cy="28.1815" r="26.1815" transform="matrix(0.731959 -0.681349 -0.681349 -0.731959 129.715 519.99)" fill="#FFF1BF" stroke="black" stroke-width="4"/>
<circle cx="28.1815" cy="28.1815" r="26.1815" transform="matrix(0.731959 -0.681349 -0.681349 -0.731959 228.121 364.931)" fill="#0090FF" stroke="black" stroke-width="4"/>
<circle cx="28.1815" cy="28.1815" r="26.1815" transform="matrix(0.731959 -0.681349 -0.681349 -0.731959 344.299 118.658)" fill="#FFF1BF" stroke="black" stroke-width="4"/>
<circle cx="19.3536" cy="19.3536" r="17.3536" transform="matrix(0.731959 -0.681349 -0.681349 -0.731959 286.387 401.612)" fill="#FF0054" stroke="black" stroke-width="4"/>
<circle cx="19.3536" cy="19.3536" r="17.3536" transform="matrix(0.731959 -0.681349 -0.681349 -0.731959 344.32 195.566)" fill="#FF0054" stroke="black" stroke-width="4"/>
<circle cx="56.7774" cy="56.7774" r="54.7774" transform="matrix(0.731959 -0.681349 -0.681349 -0.731959 451.156 224.07)" fill="#FF0054" stroke="black" stroke-width="4"/>
<circle cx="47.5351" cy="47.5351" r="45.5351" transform="matrix(0.731959 -0.681349 -0.681349 -0.731959 217.504 480.983)" fill="#FFB200" stroke="black" stroke-width="4"/>
<circle cx="55.0049" cy="55.0049" r="53.0049" transform="matrix(0.731959 -0.681349 -0.681349 -0.731959 99.9551 449.13)" fill="#FF0054" stroke="black" stroke-width="4"/>
<circle cx="55.0049" cy="55.0049" r="53.0049" transform="matrix(0.731959 -0.681349 -0.681349 -0.731959 307.748 341.836)" fill="#FFB200" stroke="black" stroke-width="4"/>
<circle cx="112.272" cy="112.272" r="110.272" transform="matrix(0.731959 -0.681349 -0.681349 -0.731959 152.992 317.349)" fill="#0090FF" stroke="black" stroke-width="4"/>
</svg>
