<svg width="535" height="520" viewBox="0 0 535 520" fill="none" xmlns="http://www.w3.org/2000/svg">
<circle cx="403.132" cy="480.161" r="26.1815" transform="rotate(-137.051 403.132 480.161)" fill="#FFF1BF" stroke="black" stroke-width="4"/>
<circle cx="304.726" cy="325.102" r="26.1815" transform="rotate(-137.051 304.726 325.102)" fill="#0090FF" stroke="black" stroke-width="4"/>
<circle cx="188.548" cy="78.8292" r="26.1815" transform="rotate(-137.051 188.548 78.8292)" fill="#FFF1BF" stroke="black" stroke-width="4"/>
<circle cx="246.907" cy="374.26" r="17.3536" transform="rotate(-137.051 246.907 374.26)" fill="#FF0054" stroke="black" stroke-width="4"/>
<circle cx="188.974" cy="168.213" r="17.3536" transform="rotate(-137.051 188.974 168.213)" fill="#FF0054" stroke="black" stroke-width="4"/>
<circle cx="80.2437" cy="143.826" r="54.7774" transform="rotate(-137.051 80.2437 143.826)" fill="#FF0054" stroke="black" stroke-width="4"/>
<circle cx="314.364" cy="413.802" r="45.5351" transform="rotate(-137.051 314.364 413.802)" fill="#FFB200" stroke="black" stroke-width="4"/>
<circle cx="431.535" cy="371.391" r="53.0049" transform="rotate(-137.051 431.535 371.391)" fill="#FF0054" stroke="black" stroke-width="4"/>
<circle cx="223.742" cy="264.098" r="53.0049" transform="rotate(-137.051 223.742 264.098)" fill="#FFB200" stroke="black" stroke-width="4"/>
<circle cx="375.599" cy="158.675" r="110.272" transform="rotate(-137.051 375.599 158.675)" fill="#0090FF" stroke="black" stroke-width="4"/>
</svg>
