<svg width="393" height="240" viewBox="0 0 393 240" fill="none" xmlns="http://www.w3.org/2000/svg">
<rect x="2" y="2" width="306.653" height="204.435" rx="24" fill="#FF0054" stroke="black" stroke-width="4"/>
<path d="M308 57V57C353.84 57 391 94.1604 391 140V140H308V57Z" fill="#FFA9DD" stroke="black" stroke-width="4"/>
<path d="M308 206H367C380.255 206 391 195.255 391 182V140H308V206Z" fill="url(#paint0_linear_174_6699)" stroke="black" stroke-width="4"/>
<path d="M308 206H367C380.255 206 391 195.255 391 182V140H308V206Z" fill="url(#paint1_linear_174_6699)" stroke="black" stroke-width="4"/>
<circle cx="71.9791" cy="211.939" r="25.5202" fill="#FFB200" stroke="black" stroke-width="4"/>
<circle cx="308.653" cy="211.939" r="25.5202" fill="#FFB200" stroke="black" stroke-width="4"/>
<path fill-rule="evenodd" clip-rule="evenodd" d="M155.5 47C164.337 47 171.5 54.1634 171.5 63V88H201.5C210.337 88 217.5 95.1634 217.5 104C217.5 112.837 210.337 120 201.5 120H171.5V145C171.5 153.837 164.337 161 155.5 161C146.663 161 139.5 153.837 139.5 145V120H110C101.163 120 94 112.837 94 104C94 95.1634 101.163 88 110 88H139.5V63C139.5 54.1634 146.663 47 155.5 47Z" fill="#FFF1BF" stroke="black" stroke-width="4" stroke-linecap="round" stroke-linejoin="round"/>
<circle cx="349" cy="140" r="13" fill="#FFF1BF" stroke="black" stroke-width="4"/>
<path d="M344 135L348.75 139.75M353.5 144.5L348.75 139.75M348.75 139.75L353.5 135L344 144.5" stroke="black" stroke-width="4" stroke-linecap="round" stroke-linejoin="round"/>
<defs>
<linearGradient id="paint0_linear_174_6699" x1="349.5" y1="206" x2="349.5" y2="140" gradientUnits="userSpaceOnUse">
<stop stop-color="#FFF1BF" stop-opacity="0"/>
<stop offset="1" stop-color="#FFF1BF"/>
</linearGradient>
<linearGradient id="paint1_linear_174_6699" x1="349.5" y1="206" x2="349.5" y2="140" gradientUnits="userSpaceOnUse">
<stop stop-color="#FF0054"/>
<stop offset="1" stop-color="#FFF1BF"/>
</linearGradient>
</defs>
</svg>
