<svg width="452" height="711" viewBox="0 0 452 711" fill="none" xmlns="http://www.w3.org/2000/svg">
<path d="M289.455 531.572C291.981 525.228 294.156 519.589 296.448 514.013C306.678 489.167 317.001 464.345 327.207 439.46C336.677 416.373 346.334 393.336 351.123 368.724C352.52 361.619 352.618 354.273 353.315 347.051C353.527 344.849 352.52 343.622 350.455 343.015C345.858 341.677 341.452 342.017 336.893 343.578C318.45 349.968 305.843 363.865 293.299 377.645C273.159 399.762 255.984 424.249 238.848 448.713C238.634 449.022 238.497 449.418 237.828 450.704C245.915 449.37 253.267 448.175 261.283 446.856C264.26 452.982 267.603 459.867 271.281 467.373C269.161 468.112 267.264 469.143 265.243 469.377C256.076 470.527 246.91 471.546 237.738 472.463C233.44 472.897 229.129 473.129 224.836 473.166C222.507 473.186 221.133 474.121 219.841 476.008C197.77 508.41 175.868 540.922 153.433 573.063C140.406 591.731 126.815 610.018 112.837 628.005C107.366 635.072 100.465 641.133 93.5979 646.937C89.885 650.082 85.0759 652.341 80.3608 653.862C72.0094 656.588 65.0644 653.44 60.992 645.665C57.5601 639.121 54.246 632.508 51.3779 625.713C47.2118 615.888 49.3615 606.291 54.7477 597.774C59.3016 590.533 65.1624 584.133 70.4818 577.392C71.0827 576.62 71.8537 575.958 73.1471 574.571C71.256 575.071 70.2248 575.332 69.2082 575.663C56.2313 579.568 43.2773 583.512 30.2626 587.307C29.5124 587.509 27.9522 587 27.6475 586.389C24.4005 580.026 21.3184 573.541 18.0677 566.811C19.3588 566.32 20.3459 565.848 21.3935 565.525C52.9252 555.691 84.4569 545.857 116.011 536.062C118.545 535.265 121.155 534.554 123.784 534.28C124.844 534.16 126.58 535.013 127.06 535.969C130.087 541.776 132.801 547.767 135.781 553.628C136.924 555.854 135.635 556.844 134.167 557.887C126.274 563.423 118.282 568.833 110.436 574.447C98.0573 583.29 86.1093 592.644 75.9685 604.099C69.5133 611.372 63.9711 619.218 61.4863 628.827C60.4766 632.68 60.8864 633.65 64.772 633.141C69.1415 632.559 73.6427 631.348 77.5529 629.351C85.326 625.411 91.3651 619.091 97.1558 612.706C111.869 596.472 124.312 578.515 136.731 560.518C155.757 532.897 174.667 505.211 193.608 477.534C194.083 476.862 194.465 476.165 195.194 475.028C193.761 475.051 192.67 475.031 191.634 475.058C168.136 475.774 144.645 476.591 121.157 477.144C116.38 477.253 111.535 476.482 106.758 475.96C103.824 475.623 101.809 474.066 100.509 471.168C98.0396 465.64 95.3822 460.195 92.6071 454.819C91.2196 452.131 91.657 449.955 93.9965 448.376C97.4977 446.04 100.94 443.422 104.805 441.978C122.933 435.14 141.183 428.599 159.456 422.098C166.598 419.553 173.86 417.438 181.014 414.465C179.768 414.404 178.554 414.351 177.3 414.322C152.252 413.602 127.316 411.318 102.469 408.061C97.6537 407.43 94.6925 405.426 92.9368 400.848C91.0975 396.083 88.6716 391.529 86.2766 386.983C85.0415 384.601 85.7185 383.284 87.9787 382.515C92.6479 380.916 97.2712 379.238 102.008 377.89C145.671 365.225 189.967 355.083 234.249 344.871C248.106 341.662 261.689 337.22 275.354 333.097C277.989 332.293 278.948 332.943 279.951 335.198C282.261 340.319 284.799 345.334 287.471 350.849C298.605 339.787 309.532 329.004 324.367 322.697C322.537 309.533 320.778 296.355 318.745 283.204C318.454 281.401 317.073 279.445 315.63 278.237C311.084 274.423 305.555 272.841 299.775 272.09C289.693 270.776 279.687 271.707 269.72 273.246C234.038 278.771 199.33 288.437 164.928 299.212C160.519 300.58 156.139 302.089 151.775 303.536C150.469 303.957 149.178 304.449 148.451 302.664C148.064 301.733 147.536 300.831 147.079 299.914C144.415 294.368 141.774 288.861 138.989 283.018C144.768 281.112 150.242 279.226 155.809 277.498C189.233 267.031 222.896 257.556 257.555 252.26C267.412 250.759 277.56 250.297 287.561 250.527C301.09 250.852 311.034 257.508 316.774 270.07C321.898 281.308 328.47 291.962 330.688 304.53C337.729 279.944 345.87 255.845 356.822 231.919C355.227 232.431 354.413 232.749 353.592 232.965C345.308 235.31 337.023 237.655 328.761 240.039C327.143 240.511 326.14 240.282 325.326 238.574C322.367 232.254 319.282 226.033 316.092 219.453C317.007 219.128 317.697 218.777 318.431 218.638C337.343 215.525 354.176 207.55 369.779 196.664C376.077 192.271 376.177 192.397 379.551 199.291C381.63 203.521 383.552 207.844 385.788 211.982C386.902 214.067 386.704 215.709 385.707 217.739C378.646 231.761 371.29 245.638 364.764 259.9C355.937 279.137 349.43 299.281 343.692 319.659C343.188 321.453 343.466 322.422 345.009 323.756C347.524 325.943 349.941 328.502 351.506 331.402C355.055 337.878 358.182 344.574 361.229 351.317C364.961 359.633 365.009 368.445 364.145 377.317C362.568 393.473 358.1 409.004 352.266 424.044C342.46 449.3 332.289 474.428 321.824 499.411C305.682 537.95 291.285 577.177 277.043 616.446C273.802 625.392 269.793 634.103 265.831 642.761C264.386 645.869 262.234 648.758 259.929 651.342C255.739 656.055 250.825 656.56 246.049 652.486C242.739 649.66 239.59 646.344 237.302 642.657C232.038 634.105 226.799 625.46 222.5 616.398C213.543 597.614 205.157 578.548 196.693 559.529C195.295 556.373 194.368 552.943 193.627 549.561C192.658 545.023 194.093 542.843 198.411 541.318C199.474 540.932 200.561 540.586 201.669 540.412C227.777 535.565 252.356 526.034 276.776 516.097C281.127 514.315 280.615 513.483 282.981 518.52C284.944 522.687 287.024 526.785 289.423 531.696L289.455 531.572ZM287.223 537.429C285.494 538.072 284.478 538.403 283.437 538.828C260.779 547.998 237.963 556.63 213.852 561.335C203.74 563.301 202.621 565.166 206.471 574.676C211.344 586.744 216.428 598.769 222.288 610.365C225.808 617.331 230.502 623.874 235.593 629.79C240.445 635.478 245.789 634.853 250.259 628.819C253.091 624.979 255.748 620.794 257.474 616.365C264.612 598.246 271.394 579.967 278.239 561.705C281.195 553.846 284.034 545.924 287.201 537.39L287.223 537.429ZM247.428 399.627C259.164 384.871 270.734 370.371 282.312 355.839C236.532 370.373 188.821 377.196 142.899 391.261C143.418 391.563 143.906 391.725 144.428 391.762C168.368 393.287 192.339 393.425 216.311 392.037C223.663 391.606 231.059 391.386 238.396 390.884C241.811 390.65 244.105 391.65 245.204 395.059C245.716 396.654 246.697 398.107 247.467 399.604L247.428 399.627ZM230.721 423.34C198.838 433.879 167.503 444.229 136.137 454.571C136.885 455.265 137.469 455.319 138.046 455.271C161.703 454.198 185.322 453.149 208.972 451.975C210.22 451.903 211.775 450.783 212.55 449.725C218.099 441.981 223.486 434.095 228.896 426.249C229.443 425.429 229.928 424.593 230.721 423.34Z" fill="white" stroke="black" stroke-width="4"/>
<path d="M280.232 200.953C279.662 201.734 279.038 202.467 278.5 203.255C271.31 213.458 263.35 222.927 252.946 230.063C246.869 234.248 240.321 237.314 232.924 238.298C221.267 239.825 213.865 235.76 208.866 225.186C207.329 221.928 205.824 218.678 204.247 215.442C201.07 208.898 199.739 202.152 200.254 195.203C194.253 196.055 188.262 196.742 182.345 197.782C179.729 198.259 178.484 197.434 177.404 195.093C174.668 189.063 171.673 183.131 168.644 176.825C170.852 176.508 172.662 176.318 174.473 175.995C190.531 173.131 206.573 170.328 222.587 167.253C226.576 166.472 230.435 164.926 234.307 163.583C236.395 162.836 237.639 163.029 238.673 165.292C241.531 171.619 244.647 177.848 247.844 184.53C230.745 189.214 218.763 199.456 211.233 216.409C215.328 216.619 218.548 217.131 221.706 216.863C231.407 216.084 239.446 211.384 246.813 205.445C258.009 196.425 266.234 184.933 273.717 172.848C278.256 165.537 282.401 157.957 286.739 150.527C287.517 149.203 288.273 147.841 289.159 146.612C290.062 145.321 291.155 145.076 291.955 146.714C295.115 153.153 298.346 159.578 301.279 166.125C301.849 167.37 301.447 169.157 301.189 170.65C299.635 179.241 297.988 187.808 296.681 196.597C320.182 164.57 347.398 136.106 378.084 110.743C377.015 110.895 375.946 111.046 374.9 111.237C359.48 114.202 343.964 116.645 328.207 116.965C325.604 117.013 324.148 116.234 323.062 113.791C320.411 107.816 317.422 101.986 314.454 95.8287C315.227 95.666 315.704 95.4922 316.14 95.4738C340.637 95.2522 364.461 90.5042 388.035 84.429C402.818 80.5995 417.4 76.0196 432.11 71.8386C438.105 70.1223 437.086 69.9551 439.766 75.439C442.013 80.0454 444.102 84.7436 446.544 89.2354C447.827 91.5637 447.47 92.7985 445.258 94.1447C436.848 99.2461 428.354 104.292 420.151 109.746C375.642 139.324 337.903 175.888 306.708 219.281C302.687 224.868 298.535 230.321 294.213 235.664C291.211 239.393 290.146 239.147 288.044 234.877C285.6 229.887 283.374 224.821 280.734 219.945C278.917 216.614 279.134 213.25 279.579 209.781C279.939 206.887 280.369 203.978 280.76 201.092C280.582 201.012 280.403 200.932 280.225 200.852L280.232 200.953Z" fill="white" stroke="black" stroke-width="4"/>
<path d="M150.193 323.743C167.595 320.566 184.643 317.596 201.618 314.274C235.239 307.744 269.05 302.392 303.086 298.461C305.582 298.185 306.933 298.606 308.019 301.049C310.663 307.054 313.651 312.884 316.688 319.159C315.626 319.412 314.812 319.73 313.993 319.814C269.563 324.508 225.738 332.98 181.89 341.28C175.847 342.42 169.722 343.239 163.664 344.308C161.33 344.725 159.888 344.148 158.839 341.814C156.065 335.675 153.032 329.634 150.201 323.712L150.193 323.743Z" fill="white" stroke="black" stroke-width="4"/>
<path d="M167.145 676.473C163.491 668.874 160.149 661.988 156.815 655.071C171.406 645.513 185.754 636.124 200.392 626.512C203.887 633.704 207.229 640.59 210.762 647.891C196.288 657.38 181.932 666.8 167.145 676.473Z" fill="white" stroke="black" stroke-width="4"/>
<path d="M144.67 620.451C156.747 614.152 168.432 608.083 180.422 601.861C183.879 608.943 187.221 615.829 190.808 623.177C178.919 629.392 167.147 635.539 155.062 641.868C151.461 634.45 148.073 627.485 144.693 620.49L144.67 620.451Z" fill="white" stroke="black" stroke-width="4"/>
<path d="M240.793 119.571C246.232 117.443 251.241 115.435 256.335 113.482C261.131 111.651 265.897 109.812 270.777 108.169C271.614 107.89 273.385 108.354 273.698 108.934C276.944 115.297 279.964 121.766 283.23 128.566C272.463 132.651 261.978 136.677 251.102 140.8C247.737 133.875 244.426 126.997 240.801 119.539L240.793 119.571Z" fill="white" stroke="black" stroke-width="4"/>
<path d="M241.628 85.4825C251.468 82.0177 260.955 78.7593 270.358 75.313C272.416 74.5572 273.441 74.8259 274.369 76.8621C277.22 83.088 280.236 89.1912 283.174 95.3402C282.78 95.7019 282.566 96.0111 282.316 96.0784C273.243 99.2791 264.146 102.441 255.096 105.681C252.569 106.579 251.3 105.848 250.213 103.405C247.516 97.3523 244.49 91.4125 241.605 85.4432L241.628 85.4825Z" fill="white" stroke="black" stroke-width="4"/>
<path d="M139.974 347.301C132.387 349.264 125.284 351.155 118.151 352.905C117.581 353.055 116.457 352.528 116.167 351.987C112.876 345.413 109.694 338.802 106.42 332.033C113.805 330.083 120.815 328.168 127.877 326.433C128.588 326.254 129.977 326.784 130.282 327.395C133.521 333.789 136.58 340.235 139.974 347.301Z" fill="white" stroke="black" stroke-width="4"/>
</svg>
