<svg width="507" height="421" viewBox="0 0 507 421" fill="none" xmlns="http://www.w3.org/2000/svg">
<path d="M380.727 3C387.512 3.61964 394.328 4.08452 401.082 4.89005C425.806 7.89532 449.445 14.3085 470.513 28.2195C483.836 37.0494 494.586 48.203 500.566 63.2913C507.103 79.8358 505.864 96.4423 500.411 112.956C494.679 130.337 485.106 145.704 474.82 160.637C464.1 176.19 453.318 191.743 442.413 207.172C440.058 210.518 439.593 213.4 441.421 217.179C448.919 232.671 456.138 248.286 463.542 263.808C466.455 269.911 466.548 269.849 461.498 274.187C457.966 277.192 454.31 280.104 450.933 283.295C449.074 285.03 447.741 284.937 445.851 283.481C437.61 277.161 429.276 270.934 420.973 264.675C420.043 263.963 419.052 263.374 417.565 262.351C416.449 268.114 415.241 273.381 414.405 278.71C412.267 292.404 411.771 306.098 415.272 319.668C416.233 323.386 417.906 326.887 419.114 330.543C419.362 331.287 419.269 332.588 418.773 333.022C413.599 337.607 408.301 342.037 402.632 346.902C401.64 344.95 400.618 343.308 399.936 341.511C394.793 327.941 394.328 313.875 395.815 299.623C397.303 285.154 400.773 271.15 406.102 257.642C406.969 255.442 406.318 254.575 404.583 253.429C380.882 237.876 356.003 224.398 330.722 211.572C328.708 210.549 326.663 209.496 324.649 208.474C324.495 208.381 324.278 208.412 323.782 208.35C323.937 209.155 324.03 209.899 324.185 210.611C328.243 227.311 332.364 244.01 336.361 260.74C336.64 261.856 336.361 263.653 335.586 264.365C330.443 269.013 325.145 273.443 319.259 278.431C300.731 234.468 277.743 193.385 248.867 155.68C249.735 157.415 250.602 159.15 251.439 160.885C257.201 172.906 261.787 185.299 262.065 198.869C262.127 201.627 261.849 204.384 261.477 207.141C260.857 211.665 258.596 215.259 255.064 218.171C250.726 221.765 246.389 225.39 242.206 229.17C238.333 232.64 233.872 233.786 229.287 231.71C224.484 229.541 219.62 227.001 215.561 223.686C202.27 212.873 192.449 199.024 183.712 184.462C174.51 169.126 167.353 152.861 161.776 135.851C158.957 127.207 158.616 120.051 167.57 114.784C171.04 112.739 173.921 109.61 177.484 106.635V111.345C202.611 103.506 219.403 116.178 234.337 134.147C232.23 131.173 234.027 129.686 235.979 128.106C240.161 124.636 244.282 121.073 248.433 117.541C249.146 116.921 249.921 116.364 250.354 116.023C258.503 129.593 267.983 141.831 276.658 154.596C281.491 161.722 286.294 168.878 291.096 176.004C291.468 176.562 291.901 177.089 292.676 177.491C292.428 176.5 292.18 175.509 291.901 174.548C282.297 143.597 273.994 112.336 266.961 80.7343C265.938 76.2109 265.164 71.5945 264.42 67.0092C264.296 66.1727 264.513 64.8715 265.102 64.3758C270.338 59.7285 275.698 55.236 281.399 50.3408C287.595 81.5088 295.093 111.809 304.387 141.769C304.728 133.528 309.499 128.261 315.541 123.675C318.546 121.414 321.365 118.904 324.092 116.302C329.421 111.252 335.555 109.517 342.681 111.407C343.053 111.5 343.456 111.562 343.827 111.593C343.889 111.593 343.982 111.499 344.416 111.283C342.929 107.224 341.628 103.01 339.862 98.9828C338.746 96.4113 339.273 94.8932 341.411 93.2201C346.337 89.2854 351.046 85.1027 356.189 80.7343C358.637 87.5193 361.054 93.8707 363.253 100.315C367.033 111.345 370.689 122.436 374.438 133.466C375.429 136.409 374.717 138.423 372.238 140.344C367.932 143.659 363.811 147.222 359.814 150.909C357.986 152.582 356.902 152.272 355.508 150.568C352.874 147.346 350.272 144.093 347.452 141.057C342.495 135.728 336.887 131.173 330.102 128.323C327.872 127.393 325.455 126.836 322.326 125.844C322.574 129.035 322.481 131.576 323.007 133.993C325.083 143.659 330.939 150.878 338.406 156.95C347.39 164.293 357.769 169.281 368.489 173.464C377.319 176.903 386.366 179.908 395.289 183.13C396.187 183.44 397.055 183.812 398.48 184.339C396.931 185.702 395.784 186.724 394.638 187.716C390.734 191.062 386.769 194.346 382.958 197.785C381.533 199.086 380.231 199.179 378.404 198.931C368.117 197.506 357.831 196.267 347.514 194.996C347.173 194.965 346.802 195.058 346.43 195.089C369.852 208.133 393.182 221.145 416.883 234.375C418.123 232.175 419.827 229.541 421.128 226.722C421.531 225.855 421.128 224.429 420.756 223.345C415.024 206.522 410.346 189.482 408.332 171.76C408.084 169.591 408.394 168.104 410.191 166.648C415.179 162.62 420.012 158.376 425.558 153.635C427.262 170.799 431.166 186.879 436.433 202.959C436.991 202.463 437.331 202.246 437.517 201.967C448.733 185.423 460.32 169.126 471.04 152.272C478.94 139.848 484.393 126.216 486.531 111.468C490.094 87.0236 481.698 67.1021 463.356 51.1153C448.64 38.2887 431.197 30.6981 412.515 25.741C382.896 17.9025 352.843 17.2209 322.605 20.7529C299.523 23.4793 276.937 28.3745 255.466 37.6382C251.036 39.5591 246.76 41.8517 242.454 44.1133C233.624 48.7607 230.619 57.002 229.348 66.1108C228.326 73.4535 230.061 80.5174 232.632 87.3024C233.748 90.3077 233.19 92.1357 230.65 94.0875C226.405 97.3097 222.378 100.842 218.474 104.497C216.491 106.356 215.035 106.171 213.145 104.56C206.639 98.9208 200.163 93.2201 193.502 87.7673C180.769 77.3573 167.136 68.4344 151.181 63.7251C126.147 56.3204 102.384 60.255 79.0542 71.0058C60.1241 79.7428 47.6074 94.5832 37.6311 112.088C24.8975 134.426 18.4841 158.468 19.7854 184.276C21.0557 209.868 30.598 232.299 46.7397 252.034C63.7179 272.792 85.2815 287.695 108.704 300.181C111.585 301.73 114.498 303.217 117.472 304.549C118.277 304.89 119.734 304.89 120.322 304.394C135.225 291.413 153.442 284.008 170.235 274.218C174.51 271.739 178.817 269.261 183.247 267.061C185.974 265.729 187.244 263.56 186.934 260.895C186.562 257.301 186.221 253.398 184.641 250.299C179.405 240.106 173.952 229.975 167.942 220.216C147.246 186.662 126.953 152.923 109.819 117.355C106.38 110.229 103.158 102.979 99.7503 95.8535C98.8518 93.9327 99.0067 92.6933 100.742 91.2991C105.792 87.1785 110.687 82.872 115.768 78.5655C116.109 78.9682 116.45 79.1851 116.574 79.5259C135.38 122.188 158.678 162.403 183.278 201.905C189.072 211.231 194.463 220.804 199.885 230.347C201.341 232.918 202.363 235.738 203.386 238.526C206.143 246.179 204.78 252.995 198.614 258.479C188.204 267.773 177.856 277.13 165.308 283.636C157.253 287.819 149.353 292.311 141.483 297.052C172.186 288.377 203.293 282.552 235.266 281.901C235.39 281.653 235.514 281.406 235.638 281.158C228.76 275.364 221.882 269.539 214.725 263.498C220.271 258.758 225.631 254.141 231.114 249.618C231.517 249.277 232.85 249.494 233.376 249.928C242.702 257.27 252.12 264.551 259.773 273.784C260.331 274.466 260.888 275.178 261.415 275.891C264.172 279.732 264.017 280.662 260.393 283.76C256.551 287.013 252.554 290.143 248.929 293.613C246.358 296.06 243.507 296.99 240.099 297.021C230.402 297.175 220.704 297.268 211.007 297.671C184.858 298.787 159.298 303.434 134.109 310.405C133.552 310.56 132.994 310.777 131.848 311.179C133.335 311.861 134.357 312.357 135.38 312.79C163.326 324.657 192.356 333.239 221.572 341.201C256.706 350.775 291.901 360.007 326.973 369.798C339.924 373.422 352.503 378.256 365.267 382.531C365.98 382.779 366.692 382.996 368.117 383.461C367.219 381.974 366.692 381.075 366.135 380.177C353.525 359.45 340.605 338.908 330.753 316.663C329.545 313.937 328.336 311.241 327.345 308.422C327.066 307.647 327.314 306.191 327.872 305.664C333.046 301.079 338.344 296.618 343.704 292.063C344.044 292.497 344.385 292.745 344.509 293.086C354.299 317.655 368.117 340.086 381.905 362.517C389.774 375.343 397.798 388.046 405.885 400.749C407.341 403.041 407.279 404.374 405.079 406.14C400.587 409.672 396.28 413.513 391.974 417.293C390.796 418.316 389.867 418.873 388.349 417.882C364.957 402.298 338.684 393.344 312.04 385.722C277.216 375.777 242.113 366.699 207.165 357.219C175.161 348.513 143.311 339.218 112.918 325.679C88.7516 314.928 65.7938 302.133 46.0272 284.287C25.9198 266.162 10.9554 244.754 4.97584 217.954C-1.80925 187.592 3.33389 158.747 17.09 131.204C26.4466 112.491 39.7688 96.9688 55.6936 83.5535C66.0726 74.8166 76.2967 65.9559 88.2558 59.3257C107.31 48.7918 127.479 43.0599 149.446 44.8259C167.725 46.282 183.898 53.2841 198.769 63.6631C203.447 66.9162 207.971 70.4173 212.06 73.4535C225.135 49.9071 245.521 34.6949 269.067 23.4793C290.352 13.3482 313.279 8.60794 336.547 5.69562C344.602 4.67321 352.719 4.30129 360.806 3.61968C361.766 3.52673 362.758 3.34098 363.718 3.18607C369.45 3.18607 375.212 3.18607 380.944 3.18607L380.727 3ZM180.645 124.698C180.892 125.689 181.016 126.34 181.233 126.96C189.66 150.754 201.186 172.844 217.08 192.549C223.555 200.573 230.588 208.102 239.542 213.493C240.998 214.36 242.578 215.011 244.994 216.188C244.282 210.704 244.034 206.15 243.104 201.75C238.705 181.147 228.915 163.147 215.159 147.408C209.861 141.335 203.633 136.037 197.375 130.925C192.759 127.146 186.996 125.41 180.676 124.698H180.645ZM331.899 179.35C323.596 174.517 315.665 168.414 309.499 160.141C312.412 169.932 315.324 179.691 318.236 189.512C322.914 186.011 327.314 182.758 331.868 179.381L331.899 179.35Z" fill="white" stroke="black" stroke-width="4"/>
<path d="M96.1628 166.587C106.108 177.74 115.837 188.615 125.72 199.738C120.298 204.416 115.031 209.032 109.64 213.494C109.237 213.835 107.719 213.556 107.254 213.06C98.4246 203.301 89.7186 193.448 80.9507 183.658C79.3086 181.83 79.5564 180.622 81.4463 179.073C86.4964 174.952 91.3916 170.646 96.1628 166.587Z" fill="white" stroke="black" stroke-width="4"/>
<path d="M61.8904 212.595C67.0644 208.165 72.3934 203.642 77.6914 199.025C79.1475 197.755 80.0459 198.715 80.8824 199.676C84.8482 204.23 88.7829 208.816 92.6866 213.401C95.3201 216.468 97.8607 219.597 100.711 223.036C94.8864 228.024 89.2476 232.858 83.423 237.846C76.2042 229.388 69.1712 221.146 61.8594 212.564L61.8904 212.595Z" fill="white" stroke="black" stroke-width="4"/>
<path d="M442.04 118.533C441.482 117.51 440.956 116.612 440.491 115.651C436.525 107.689 432.622 99.6646 428.563 91.7332C427.819 90.277 427.664 89.4095 429.059 88.2632C434.233 83.9877 439.283 79.5573 444.643 74.9409C445.2 75.7465 445.758 76.3971 446.13 77.1407C450.25 85.382 454.309 93.6232 458.43 101.864C459.111 103.228 459.421 104.25 457.965 105.458C453.008 109.548 448.175 113.793 443.279 117.944C443.001 118.192 442.598 118.285 442.009 118.564L442.04 118.533Z" fill="white" stroke="black" stroke-width="4"/>
<path d="M399.035 99.6946C404.86 94.7065 410.468 89.9044 416.323 84.8853C416.85 85.5978 417.377 86.1555 417.717 86.8061C421.652 94.3348 425.587 101.863 429.398 109.423C429.831 110.26 429.986 111.994 429.491 112.428C424.286 117.076 418.926 121.568 413.132 126.525C408.361 117.416 403.744 108.648 399.035 99.6946Z" fill="white" stroke="black" stroke-width="4"/>
</svg>
