<svg width="402" height="352" viewBox="0 0 402 352" fill="none" xmlns="http://www.w3.org/2000/svg">
<path d="M186.484 206.179C186.684 210.993 186.976 215.574 186.992 220.159C186.999 226.874 186.205 233.482 183.366 239.677C181.369 244.002 178.522 247.556 173.941 249.241C168.415 251.295 163.452 249.816 158.875 246.52C154.596 243.413 151.496 239.228 148.675 234.827C141.562 223.706 137.402 211.504 135.44 198.503C135.357 198 135.283 197.456 135.132 196.58C134.384 197.413 133.794 198.005 133.275 198.655C130.874 201.606 128.585 204.624 126.079 207.469C124.74 208.999 124.537 210.35 125.137 212.293C128.268 222.482 131.642 232.616 134.107 242.959C138.727 262.521 140.71 282.368 138.437 302.47C137.573 310.203 135.868 317.716 131.976 324.594C124.922 337.006 112.5 340.611 99.8558 333.951C91.4857 329.53 84.956 323.01 79.263 315.633C66.3138 298.9 57.8472 279.954 51.8251 259.84C46.4955 242.026 43.7299 223.871 44.5752 205.218C45.0649 194.385 47.1865 183.921 51.5213 173.971C53.9137 168.484 57.0856 163.5 61.8227 159.695C70.0203 153.121 84.3493 153.848 91.411 161.242C96.3537 166.39 94.9002 173.913 88.5237 175.998C85.6202 176.942 82.9958 176.278 80.612 174.483C77.2175 171.881 74.1502 172.305 71.8692 175.979C68.7291 181.011 66.7737 186.528 65.4635 192.287C62.5248 205.301 63.0362 218.373 65.0058 231.44C68.5562 254.934 76.4112 276.854 89.2871 296.907C93.3011 303.145 97.7976 309 103.661 313.69C105.266 314.981 107.009 316.113 108.828 317.091C112.305 318.908 113.711 318.552 115.366 315.041C116.622 312.416 117.661 309.618 118.303 306.798C120.716 296.354 120.498 285.772 119.778 275.168C118.705 259.675 115.561 244.585 110.607 229.871C110.466 229.439 110.252 229.056 109.896 228.347C106.455 232.808 103.131 237.02 99.8945 241.314C98.5686 243.08 97.3799 244.896 96.1825 246.753C92.7974 251.944 86.3969 253.347 82.2366 249.781C79.2388 247.2 78.2755 243.195 80.2174 239.428C81.8773 236.192 83.8519 233.065 85.9463 230.069C91.6609 221.869 97.2628 213.602 103.338 205.69C111.505 195.098 120.104 184.851 128.43 174.399C129.27 173.332 129.926 172.036 130.403 170.786C131.534 167.754 133.226 165.159 135.977 163.443C138.189 162.077 140.433 160.76 142.819 159.768C144.211 159.178 145.963 158.981 147.468 159.153C150.703 159.525 153.929 160.043 157.07 160.859C160.252 161.684 163.323 162.929 167.025 164.181C166.336 162.261 165.995 160.394 165.049 158.884C162.492 154.729 163.215 148.655 166.748 145.247C167.707 144.311 168.492 143.106 169.09 141.882C171.004 137.75 173.335 133.939 177.836 132.237C183.663 130.056 189.854 132.514 193.275 138.162C193.705 138.823 194.293 139.73 194.98 139.876C202.927 141.82 208.322 147.023 212.323 153.722C219.022 164.903 222.258 177.077 221.302 190.196C220.941 195.165 219.636 199.912 217.337 204.364C211.198 216.147 199.281 218.171 189.477 209.181C188.508 208.278 187.547 207.334 186.499 206.309L186.484 206.179ZM166.757 227.443C166.952 227.421 167.122 227.415 167.3 227.369C167.416 226.528 167.588 225.72 167.663 224.87C168.521 214.391 167.482 204.098 164.373 194.105C163.243 190.486 161.317 187.036 159.405 183.715C158.065 181.382 155.922 179.744 152.678 179.412C153.331 196.779 156.613 213.102 166.741 227.419L166.757 227.443ZM201.07 193.892C201.416 192.762 201.642 192.198 201.762 191.632C203.634 180.461 200.809 170.422 194.36 161.237C192.059 157.961 188.804 157.88 185.161 158.329C186.705 171.811 192.429 183.206 201.095 193.876L201.07 193.892Z" fill="white" stroke="black" stroke-width="4"/>
<path d="M242.471 231.397C238.697 235.935 235.352 240.438 231.511 244.498C227.449 248.806 223.074 252.794 218.643 256.749C214.81 260.177 209.2 259.849 205.768 256.332C202.201 252.659 201.929 247.09 205.459 243.302C208.225 240.323 211.351 237.737 214.262 234.873C221.863 227.433 227.884 218.686 234.17 210.184C234.639 209.567 234.598 208.27 234.309 207.448C230.01 194.71 225.647 181.979 221.259 169.264C214.408 149.374 207.532 129.5 200.705 109.594C199.548 106.202 198.594 102.747 197.441 99.039C196.626 99.4988 195.99 99.8069 195.442 100.197C180.904 109.876 168.237 121.58 157.833 135.644C156.383 137.594 155.173 139.807 154.117 141.989C152.239 145.854 148.253 147.919 144.231 146.874C140.267 145.861 137.541 142.198 138.03 138.016C138.284 135.832 138.96 133.548 139.973 131.568C145.865 120.154 153.635 110.132 163.05 101.41C182.002 83.8873 203.73 71.1779 228.581 64.0313C238.499 61.1806 248.618 60.3574 258.824 62.4029C265.668 63.7751 271.847 66.5891 277.751 71.2872C277.047 67.9492 276.418 65.0495 275.83 62.1585C273.954 53.314 272.128 44.4378 270.147 35.5919C269.801 34.0405 268.896 32.5388 267.981 31.1829C265.92 28.1684 265.706 24.5125 267.597 21.5791C269.513 18.6298 272.932 17.2461 276.464 17.9133C281.847 18.9111 284.236 22.8613 285.978 27.4757C290.056 38.3725 292.484 49.6782 295.173 60.9548C300.887 84.9945 306.83 108.956 312.788 132.942C314.941 141.677 317.361 150.342 319.628 159.037C319.937 160.264 320.196 161.523 320.311 162.772C320.783 167.792 317.636 172.062 312.821 173.064C308.183 174.02 303.388 171.352 302.013 166.605C299.543 157.972 297.326 149.244 295.011 140.581C294.306 137.939 293.617 135.323 292.829 132.283C292.57 132.904 292.38 133.201 292.311 133.524C288.523 151.023 281.575 167.301 273.136 182.944C268.079 192.319 262.419 201.355 257.097 210.588C256.634 211.377 256.473 212.63 256.754 213.492C258.554 219.217 260.567 224.839 262.343 230.58C263.831 235.394 262.468 239.516 258.874 241.919C253.72 245.403 246.96 243.141 244.587 237.125C243.881 235.286 243.223 233.415 242.463 231.332L242.471 231.397ZM248.313 188.471C248.735 187.78 249.106 187.225 249.396 186.654C253.843 178.163 258.523 169.763 262.623 161.114C268.445 148.84 273.048 136.139 274.835 122.584C275.906 114.578 275.785 106.614 273.386 98.84C269.99 87.8139 262.832 81.6665 251.753 80.7444C247.813 80.4123 243.743 80.6863 239.807 81.2211C232.286 82.2382 225.277 85.0114 218.323 87.923C216.63 88.6393 214.984 89.4291 213.672 90.0367C225.247 122.946 236.713 155.578 248.289 188.487L248.313 188.471Z" fill="white" stroke="black" stroke-width="4"/>
<path d="M328.495 151.188C326.659 146.321 324.496 141.11 322.723 135.75C313.572 107.918 304.827 79.9605 298.773 51.2669C296.569 40.7901 294.723 30.2205 292.827 19.6827C292 15.1363 294.602 11.0452 298.796 9.88988C303.145 8.70404 307.63 10.8411 309.05 15.2814C310.806 20.7223 312.22 26.2804 313.544 31.8618C319.73 57.7542 325.932 83.6712 334.198 109.014C337.883 120.271 341.82 131.433 345.595 142.666C346.133 144.301 346.639 145.992 346.78 147.711C347.084 151.344 345.542 154.225 342.328 156.032C338.991 157.919 335.617 157.602 332.584 155.289C331.219 154.259 330.118 152.885 328.486 151.228L328.495 151.188Z" fill="white" stroke="black" stroke-width="4"/>
<path d="M316.942 202.104C313.762 197.205 316.078 188.703 321.175 186.579C325.808 184.651 331.142 186.969 332.33 191.803C333.365 195.972 333.264 200.215 329.934 203.56C326.177 207.321 319.836 206.563 316.942 202.104Z" fill="white" stroke="black" stroke-width="4"/>
<path d="M346.658 179.549C344.17 175.663 345.32 170.46 349.206 167.973C353.093 165.485 358.335 166.643 360.783 170.521C363.246 174.424 362.112 179.651 358.21 182.114C354.323 184.601 349.121 183.452 346.633 179.565L346.658 179.549Z" fill="white" stroke="black" stroke-width="4"/>
</svg>
