<svg width="266" height="427" viewBox="0 0 266 427" fill="none" xmlns="http://www.w3.org/2000/svg">
<mask id="path-1-inside-1_231_16162" fill="white">
<path d="M265.442 167.914C266.85 161.268 265.646 155.252 261.218 151.396C256.994 147.704 252.28 147.868 247.893 150.986C243.302 154.268 242.955 159.956 242.751 166.464C242.547 173.602 240.751 180.658 239.037 187.549C241.771 135.015 253.811 84.9701 261.606 33.5303C258.361 30.4947 255.117 29.6743 250.423 31.2878C248.975 31.78 247.383 31.8073 245.832 31.4245C245.628 31.7253 245.404 32.0262 245.179 32.327C240.771 45.6997 236.119 60.6039 230.834 75.0978C229.773 77.9966 226.283 79.3093 224.284 81.0595H229.201C224.773 90.8771 220.794 99.7376 216.795 108.625C216.121 108.543 215.427 108.461 214.754 108.352C213.938 103.566 212.53 98.8351 212.387 94.022C211.734 72.117 211.428 50.1573 210.999 28.2249C210.979 26.9396 211.122 25.627 210.999 24.3417C210.51 19.009 209.653 13.8678 204.837 12.7739C200.633 11.8441 196.042 15.8367 195.001 21.9078C192.43 36.8119 190.247 51.8255 187.798 66.757C185.288 82.0714 182.676 97.3857 180.044 112.673C179.84 113.849 179.227 114.915 178.125 117.814C175.146 108.68 172.065 101.132 170.167 93.1195C164.352 68.6985 159.005 44.0863 153.434 19.5559C152.639 16.0555 151.7 12.6098 150.782 9.13672C149.149 3.01097 145.252 -0.790378 141.395 0.139422C136.62 1.31535 134.783 5.88239 134.702 11.8441C134.6 19.6106 134.987 27.3772 134.804 35.1438C134.171 62.737 133.396 90.3029 132.58 117.896C132.478 121.533 132.11 125.28 131.274 128.725C130.274 132.827 128.6 136.629 127.294 140.321C127.294 140.321 128.682 140.321 130.396 140.321C131.865 146.72 133.743 152.244 139.864 152.736C140.824 152.818 141.436 159.983 142.476 165.179C128.254 160.147 117.296 166.711 106.664 175.489C105.358 176.583 103.44 177.075 101.91 176.802C94.5022 175.434 90.8496 179.345 90.0742 189.655C89.8905 192.089 89.5436 194.878 88.5233 196.765C84.9931 203.137 85.6053 209.263 88.6049 215.361C91.6862 221.678 94.7879 227.995 98.1549 234.039C102.175 241.259 102.338 249.709 103.073 258.022C104.624 275.743 106.174 293.464 107.195 311.841C97.1142 281.295 78.7489 277.876 56.6085 284.33C58.5471 273.528 60.3224 264.011 61.9549 254.467C64.1995 241.505 66.8931 228.624 68.3827 215.498C69.8927 202.262 68.8724 189.463 61.5059 178.579C52.6906 165.562 32.3459 167.121 21.4492 183.584C11.3483 198.816 6.85901 217.33 1.83916 235.735C-0.731976 245.224 -0.629945 254.002 2.28809 263.82C4.43071 271.04 3.79813 279.927 3.83894 288.077C4.043 326.035 4.06341 363.992 4.14504 401.95C4.14504 404.986 4.10422 407.994 4.10422 411.029C4.10422 413.573 4.45112 416.28 2.57378 417.675C5.75709 418.632 8.96081 419.671 12.1849 420.655C11.3891 420.136 10.6137 419.562 9.83826 418.823C9.34852 418.358 9.55258 416.417 9.57299 415.186C9.81786 399.243 10.0423 383.272 10.43 367.329C10.4708 365.36 11.5524 363.418 12.2462 361.203C11.6544 358.113 10.5729 354.886 10.5321 351.659C10.2668 328.578 10.0627 305.497 10.2464 282.416C10.2668 279.216 12.5318 276.072 13.7562 272.899C15.5111 275.306 17.8374 277.302 18.9189 280.174C20.7146 284.932 22.143 290.128 22.8776 295.351C23.4694 299.508 22.8368 303.966 22.6736 308.286C22.5715 311.213 21.49 314.686 22.3471 316.928C26.0405 326.664 25.4283 337.165 25.6528 347.365C26.163 369.134 26.2446 390.929 26.2446 412.698C26.2446 415.542 25.2855 420.136 23.8571 420.929C22.1226 421.886 20.3473 422.406 18.5924 422.488C22.2246 423.445 25.8773 424.238 29.5095 424.703C30.2849 421.749 31.795 419.069 33.7539 417.292C32.7336 416.034 31.8562 414.366 31.897 413.08C32.2235 400.993 33.203 388.96 33.6519 376.9C33.8968 369.872 33.5295 362.789 33.4683 355.734C33.4274 351.44 33.4683 347.146 33.4683 342.853C34.2233 342.771 34.9783 342.689 35.7333 342.607C36.9577 354.448 38.182 366.317 39.4472 378.131C39.6921 380.428 40.0798 382.752 40.6307 384.94C42.1408 390.902 44.4262 396.235 42.9774 403.399C42.1816 407.283 44.7527 412.287 45.4465 416.882C45.5281 417.374 45.5281 417.866 45.4873 418.386C46.4464 419.397 47.283 420.601 47.9564 421.968C48.3237 422.706 48.6298 423.5 48.9563 424.238C49.793 424.484 50.5888 424.812 51.3234 425.277C64.1383 425.359 76.9532 425.578 89.7885 425.879C89.9313 425.195 90.1354 424.511 90.3598 423.882C90.2782 423.882 90.1966 423.882 90.1149 423.882C94.7267 409.963 99.3792 395.934 104.766 379.635C106.623 383.135 108.746 385.733 109.48 388.906C110.929 395.004 111.378 401.513 112.643 407.72C113.867 413.682 115.581 419.452 117.214 425.742C116.99 425.742 116.785 425.715 116.561 425.687C116.643 425.988 116.704 426.316 116.785 426.617C120.846 426.754 124.907 426.863 128.968 427C129.662 425.058 130.723 423.308 132.008 421.968C134.11 416.143 132.253 410.099 131.886 404.192C131.641 400.337 131.478 396.453 131.478 392.597C131.478 391.503 131.947 389.89 132.58 389.453C133.171 389.042 134.457 389.48 135.069 390.164C137.681 393.008 140.191 395.961 142.64 399.051C146.027 403.29 145.435 408.759 145.048 414.147C144.925 415.979 145.048 417.811 145.048 419.644C145.741 419.753 146.415 419.835 147.109 419.944C147.945 414.803 148.782 409.662 149.782 403.564C153.169 406.216 156.495 408.486 159.577 411.275C164.494 415.76 169.392 419.972 175.616 420.519C176.452 420.601 177.228 422.132 178.003 423.445C180.431 424.074 182.9 424.593 185.37 424.894C188.757 412.041 191.879 400.09 195.001 388.222C195.491 388.359 195.981 388.523 196.47 388.659C199.531 395.496 202.347 402.524 205.714 409.06C208.428 414.338 213.775 416.362 216.958 421.913C219.121 421.722 221.284 421.366 223.447 420.984C224.202 420.327 225.406 419.999 227.324 420.273C229.181 419.917 231.038 419.616 232.915 419.37C232.997 419.206 233.058 419.042 233.14 418.878C235.446 415.159 238.833 412.698 241.241 409.088C251.117 394.266 253.137 375.588 254.301 356.937C256.933 314.877 251.995 274.075 242.22 234.094C241.547 231.386 242.588 226.737 244.057 224.44C254.647 207.868 261.035 188.533 265.442 167.832V167.914ZM48.0993 233.93C46.5076 243.966 43.4467 253.592 40.7327 263.246C39.9369 266.09 38.2228 268.442 36.2843 272.27C30.2033 253.592 27.1628 236.364 34.4273 217.521C34.611 222.088 34.7538 225.808 34.8967 229.554C35.4068 229.636 35.917 229.746 36.4271 229.828C37.1821 228.05 38.6513 226.19 38.5493 224.495C38.182 217.85 40.0594 212.49 42.9978 207.567C43.9161 206.036 45.0792 204.778 46.1199 203.383C47.079 205.133 48.8339 206.856 48.8339 208.606C48.8951 217.057 49.344 225.78 48.0585 233.93H48.0993ZM71.4028 393.308C70.4029 394.375 69.2193 395.141 68.0766 395.934C67.0971 396.617 66.0564 397.11 64.4852 397.985C63.2608 392.187 62.1181 386.69 60.9142 381.221C58.9756 372.333 57.4656 363.199 54.8944 354.64C52.6498 347.201 54.4863 341.048 56.8942 335.114C59.7306 328.14 63.2608 321.686 66.6482 315.15C67.5257 313.455 68.8112 311.896 70.1784 310.884C73.8515 308.177 75.9329 309.872 76.1573 315.506C76.6267 326.691 76.994 337.903 77.5245 349.088C77.647 351.878 78.1571 354.612 78.504 357.374L81.2792 357.21V311.404L83.1565 311.185C88.3192 318.87 93.4615 326.199 93.1758 338.149C92.6249 361.476 84.7686 379.252 71.4232 393.281L71.4028 393.308ZM215.407 171.989C215.733 161.214 216.101 150.439 216.182 139.692C216.223 134.714 217.488 131.679 221.141 130.011C223.631 128.89 225.855 126.729 229.283 124.268C228.426 132.281 227.61 139.199 226.957 146.173C226.283 153.228 227.242 159.108 231.12 165.042C233.385 168.488 232.589 175.38 233.507 180.603C234.344 185.361 232.874 188.233 229.793 189.545C228.181 190.229 226.243 189.737 224.467 189.518C223.712 189.409 223.039 188.588 222.304 188.151C219.774 186.619 216.06 185.963 215.019 183.365C213.877 180.493 215.285 175.899 215.407 172.016V171.989ZM191.757 109.09C194.103 113.958 191.797 124.487 186.594 130.421C188.512 122.518 190.104 115.9 191.757 109.09ZM150.986 86.0641C155.74 102.609 160.515 119.154 165.392 136.082C160.352 136.082 155.659 136.191 150.986 135.918C150.496 135.918 149.7 133.785 149.68 132.609C149.394 119.318 149.251 106.027 149.067 92.7368C149.047 90.7131 149.067 88.7167 149.067 86.693C149.72 86.4742 150.353 86.2828 151.006 86.0641H150.986ZM167.392 143.739C166.515 148.06 156.516 152.107 146.088 151.287C153.169 148.771 160.23 146.282 167.392 143.739ZM124.927 299.645C124.519 299.262 124.111 298.879 123.683 298.496C122.519 287.284 121.377 276.044 120.193 264.832C118.744 251.049 117.316 237.239 115.765 223.483C115.051 217.221 118.03 210.466 122.254 207.485C125.703 205.024 128.927 201.797 131.825 198.269C134.477 195.069 136.498 193.675 139.946 196.765C146.823 202.891 149.108 211.204 148.047 221.733C145.272 249.189 136.62 273.501 125.825 296.691C125.417 297.594 125.213 298.688 124.927 299.672V299.645ZM150.802 375.451C148.17 372.962 146.068 370.802 143.823 368.915C140.293 365.934 136.742 362.953 133.049 360.355C128.519 357.183 126.805 353.573 129.253 347.776C134.192 336.126 139.864 325.023 145.252 313.701C154.23 333.664 152.557 353.956 150.802 375.451ZM175.33 400.719C168.065 393.336 161.576 387.347 155.74 380.346C154.353 378.678 154.944 373.673 155.087 370.255C155.516 359.808 156.536 349.362 156.638 338.915C156.72 330.164 160.719 324.23 164.045 317.995C166.31 313.728 169.657 315.779 170.739 320.182C172.575 327.703 174.371 335.442 174.942 343.263C176.044 358.414 176.35 373.701 176.779 388.933C176.86 392.242 176.003 395.633 175.35 400.774L175.33 400.719ZM194.287 209.18C194.43 217.084 191.287 224.987 190.532 233.055C188.308 257.147 186.533 281.322 184.574 305.47C184.553 305.798 184.206 306.099 183.737 306.892C179.921 298.633 174.575 294.203 167.27 294.148C159.842 294.093 154.74 299.863 148.863 305.606C149.435 302.954 150.047 300.301 150.537 297.621C154.291 277.603 158.311 257.667 161.617 237.512C163.188 227.913 164.045 217.904 164.045 208.059C164.045 191.979 159.087 178.634 148.7 169.965C144.782 166.683 146.129 162.362 146.639 158.643C146.864 156.948 149.802 155.006 151.618 154.787C155.863 154.213 160.168 154.596 165.249 154.596C165.331 154.24 165.76 152.6 166.249 150.713C166.596 151.232 167.065 151.588 167.106 152.025C167.514 155.826 168.269 159.682 168.147 163.484C167.188 191.925 166.004 220.338 164.984 248.752C164.78 254.659 164.943 260.62 164.943 267.922C166.372 266.391 167.494 265.789 167.759 264.777C168.392 262.371 168.841 259.773 168.963 257.229C170.371 227.12 171.657 196.984 173.126 166.875C173.351 162.034 174.248 157.248 174.799 152.791C177.064 152.627 178.615 152.517 180.146 152.408C180.166 151.834 180.207 151.259 180.227 150.685L174.881 148.251C174.656 147.568 174.452 146.884 174.228 146.2C177.309 143.657 180.166 140.321 183.492 138.735C190.002 135.617 192.185 127.796 195.552 121.123C196.47 119.291 197.572 117.595 198.572 115.845C199.429 117.732 200.449 119.537 201.102 121.561C202.796 126.866 204.347 132.281 205.959 137.695C202.735 139.391 200.266 141.004 197.633 141.852C196.776 142.125 195.389 139.391 194.552 139.692C190.104 141.196 185.329 141.961 182.064 147.048C181.635 147.704 181.431 149.673 181.594 149.783C182.635 150.494 183.982 151.615 184.941 151.232C190.328 149.126 195.654 146.692 200.96 144.259C202.898 143.383 204.776 142.208 207.836 140.539C208.693 145.981 210.02 150.795 210.101 155.635C210.244 164.441 209.775 173.274 209.265 182.08C209.183 183.556 207.714 185.553 206.551 186.1C198.348 189.955 194.062 196.519 194.287 209.18ZM235.915 381.85C235.507 385.186 234.364 388.441 233.201 391.504C229.201 401.895 223.039 402.825 217.264 393.664C209.816 381.905 205.224 368.067 203.163 353.054C199.021 322.944 198.776 292.644 201.96 262.316C202.164 260.456 202.347 258.241 203.163 256.874C207.408 249.846 211.652 242.817 216.284 236.282C218.427 233.273 221.753 233.137 223.059 237.567C228.038 254.577 233.67 271.422 237.098 289.007C239.894 303.418 239.894 318.788 241.282 335.715C239.649 350.018 237.915 365.961 235.935 381.85H235.915Z"/>
</mask>
<path d="M265.442 167.914C266.85 161.268 265.646 155.252 261.218 151.396C256.994 147.704 252.28 147.868 247.893 150.986C243.302 154.268 242.955 159.956 242.751 166.464C242.547 173.602 240.751 180.658 239.037 187.549C241.771 135.015 253.811 84.9701 261.606 33.5303C258.361 30.4947 255.117 29.6743 250.423 31.2878C248.975 31.78 247.383 31.8073 245.832 31.4245C245.628 31.7253 245.404 32.0262 245.179 32.327C240.771 45.6997 236.119 60.6039 230.834 75.0978C229.773 77.9966 226.283 79.3093 224.284 81.0595H229.201C224.773 90.8771 220.794 99.7376 216.795 108.625C216.121 108.543 215.427 108.461 214.754 108.352C213.938 103.566 212.53 98.8351 212.387 94.022C211.734 72.117 211.428 50.1573 210.999 28.2249C210.979 26.9396 211.122 25.627 210.999 24.3417C210.51 19.009 209.653 13.8678 204.837 12.7739C200.633 11.8441 196.042 15.8367 195.001 21.9078C192.43 36.8119 190.247 51.8255 187.798 66.757C185.288 82.0714 182.676 97.3857 180.044 112.673C179.84 113.849 179.227 114.915 178.125 117.814C175.146 108.68 172.065 101.132 170.167 93.1195C164.352 68.6985 159.005 44.0863 153.434 19.5559C152.639 16.0555 151.7 12.6098 150.782 9.13672C149.149 3.01097 145.252 -0.790378 141.395 0.139422C136.62 1.31535 134.783 5.88239 134.702 11.8441C134.6 19.6106 134.987 27.3772 134.804 35.1438C134.171 62.737 133.396 90.3029 132.58 117.896C132.478 121.533 132.11 125.28 131.274 128.725C130.274 132.827 128.6 136.629 127.294 140.321C127.294 140.321 128.682 140.321 130.396 140.321C131.865 146.72 133.743 152.244 139.864 152.736C140.824 152.818 141.436 159.983 142.476 165.179C128.254 160.147 117.296 166.711 106.664 175.489C105.358 176.583 103.44 177.075 101.91 176.802C94.5022 175.434 90.8496 179.345 90.0742 189.655C89.8905 192.089 89.5436 194.878 88.5233 196.765C84.9931 203.137 85.6053 209.263 88.6049 215.361C91.6862 221.678 94.7879 227.995 98.1549 234.039C102.175 241.259 102.338 249.709 103.073 258.022C104.624 275.743 106.174 293.464 107.195 311.841C97.1142 281.295 78.7489 277.876 56.6085 284.33C58.5471 273.528 60.3224 264.011 61.9549 254.467C64.1995 241.505 66.8931 228.624 68.3827 215.498C69.8927 202.262 68.8724 189.463 61.5059 178.579C52.6906 165.562 32.3459 167.121 21.4492 183.584C11.3483 198.816 6.85901 217.33 1.83916 235.735C-0.731976 245.224 -0.629945 254.002 2.28809 263.82C4.43071 271.04 3.79813 279.927 3.83894 288.077C4.043 326.035 4.06341 363.992 4.14504 401.95C4.14504 404.986 4.10422 407.994 4.10422 411.029C4.10422 413.573 4.45112 416.28 2.57378 417.675C5.75709 418.632 8.96081 419.671 12.1849 420.655C11.3891 420.136 10.6137 419.562 9.83826 418.823C9.34852 418.358 9.55258 416.417 9.57299 415.186C9.81786 399.243 10.0423 383.272 10.43 367.329C10.4708 365.36 11.5524 363.418 12.2462 361.203C11.6544 358.113 10.5729 354.886 10.5321 351.659C10.2668 328.578 10.0627 305.497 10.2464 282.416C10.2668 279.216 12.5318 276.072 13.7562 272.899C15.5111 275.306 17.8374 277.302 18.9189 280.174C20.7146 284.932 22.143 290.128 22.8776 295.351C23.4694 299.508 22.8368 303.966 22.6736 308.286C22.5715 311.213 21.49 314.686 22.3471 316.928C26.0405 326.664 25.4283 337.165 25.6528 347.365C26.163 369.134 26.2446 390.929 26.2446 412.698C26.2446 415.542 25.2855 420.136 23.8571 420.929C22.1226 421.886 20.3473 422.406 18.5924 422.488C22.2246 423.445 25.8773 424.238 29.5095 424.703C30.2849 421.749 31.795 419.069 33.7539 417.292C32.7336 416.034 31.8562 414.366 31.897 413.08C32.2235 400.993 33.203 388.96 33.6519 376.9C33.8968 369.872 33.5295 362.789 33.4683 355.734C33.4274 351.44 33.4683 347.146 33.4683 342.853C34.2233 342.771 34.9783 342.689 35.7333 342.607C36.9577 354.448 38.182 366.317 39.4472 378.131C39.6921 380.428 40.0798 382.752 40.6307 384.94C42.1408 390.902 44.4262 396.235 42.9774 403.399C42.1816 407.283 44.7527 412.287 45.4465 416.882C45.5281 417.374 45.5281 417.866 45.4873 418.386C46.4464 419.397 47.283 420.601 47.9564 421.968C48.3237 422.706 48.6298 423.5 48.9563 424.238C49.793 424.484 50.5888 424.812 51.3234 425.277C64.1383 425.359 76.9532 425.578 89.7885 425.879C89.9313 425.195 90.1354 424.511 90.3598 423.882C90.2782 423.882 90.1966 423.882 90.1149 423.882C94.7267 409.963 99.3792 395.934 104.766 379.635C106.623 383.135 108.746 385.733 109.48 388.906C110.929 395.004 111.378 401.513 112.643 407.72C113.867 413.682 115.581 419.452 117.214 425.742C116.99 425.742 116.785 425.715 116.561 425.687C116.643 425.988 116.704 426.316 116.785 426.617C120.846 426.754 124.907 426.863 128.968 427C129.662 425.058 130.723 423.308 132.008 421.968C134.11 416.143 132.253 410.099 131.886 404.192C131.641 400.337 131.478 396.453 131.478 392.597C131.478 391.503 131.947 389.89 132.58 389.453C133.171 389.042 134.457 389.48 135.069 390.164C137.681 393.008 140.191 395.961 142.64 399.051C146.027 403.29 145.435 408.759 145.048 414.147C144.925 415.979 145.048 417.811 145.048 419.644C145.741 419.753 146.415 419.835 147.109 419.944C147.945 414.803 148.782 409.662 149.782 403.564C153.169 406.216 156.495 408.486 159.577 411.275C164.494 415.76 169.392 419.972 175.616 420.519C176.452 420.601 177.228 422.132 178.003 423.445C180.431 424.074 182.9 424.593 185.37 424.894C188.757 412.041 191.879 400.09 195.001 388.222C195.491 388.359 195.981 388.523 196.47 388.659C199.531 395.496 202.347 402.524 205.714 409.06C208.428 414.338 213.775 416.362 216.958 421.913C219.121 421.722 221.284 421.366 223.447 420.984C224.202 420.327 225.406 419.999 227.324 420.273C229.181 419.917 231.038 419.616 232.915 419.37C232.997 419.206 233.058 419.042 233.14 418.878C235.446 415.159 238.833 412.698 241.241 409.088C251.117 394.266 253.137 375.588 254.301 356.937C256.933 314.877 251.995 274.075 242.22 234.094C241.547 231.386 242.588 226.737 244.057 224.44C254.647 207.868 261.035 188.533 265.442 167.832V167.914ZM48.0993 233.93C46.5076 243.966 43.4467 253.592 40.7327 263.246C39.9369 266.09 38.2228 268.442 36.2843 272.27C30.2033 253.592 27.1628 236.364 34.4273 217.521C34.611 222.088 34.7538 225.808 34.8967 229.554C35.4068 229.636 35.917 229.746 36.4271 229.828C37.1821 228.05 38.6513 226.19 38.5493 224.495C38.182 217.85 40.0594 212.49 42.9978 207.567C43.9161 206.036 45.0792 204.778 46.1199 203.383C47.079 205.133 48.8339 206.856 48.8339 208.606C48.8951 217.057 49.344 225.78 48.0585 233.93H48.0993ZM71.4028 393.308C70.4029 394.375 69.2193 395.141 68.0766 395.934C67.0971 396.617 66.0564 397.11 64.4852 397.985C63.2608 392.187 62.1181 386.69 60.9142 381.221C58.9756 372.333 57.4656 363.199 54.8944 354.64C52.6498 347.201 54.4863 341.048 56.8942 335.114C59.7306 328.14 63.2608 321.686 66.6482 315.15C67.5257 313.455 68.8112 311.896 70.1784 310.884C73.8515 308.177 75.9329 309.872 76.1573 315.506C76.6267 326.691 76.994 337.903 77.5245 349.088C77.647 351.878 78.1571 354.612 78.504 357.374L81.2792 357.21V311.404L83.1565 311.185C88.3192 318.87 93.4615 326.199 93.1758 338.149C92.6249 361.476 84.7686 379.252 71.4232 393.281L71.4028 393.308ZM215.407 171.989C215.733 161.214 216.101 150.439 216.182 139.692C216.223 134.714 217.488 131.679 221.141 130.011C223.631 128.89 225.855 126.729 229.283 124.268C228.426 132.281 227.61 139.199 226.957 146.173C226.283 153.228 227.242 159.108 231.12 165.042C233.385 168.488 232.589 175.38 233.507 180.603C234.344 185.361 232.874 188.233 229.793 189.545C228.181 190.229 226.243 189.737 224.467 189.518C223.712 189.409 223.039 188.588 222.304 188.151C219.774 186.619 216.06 185.963 215.019 183.365C213.877 180.493 215.285 175.899 215.407 172.016V171.989ZM191.757 109.09C194.103 113.958 191.797 124.487 186.594 130.421C188.512 122.518 190.104 115.9 191.757 109.09ZM150.986 86.0641C155.74 102.609 160.515 119.154 165.392 136.082C160.352 136.082 155.659 136.191 150.986 135.918C150.496 135.918 149.7 133.785 149.68 132.609C149.394 119.318 149.251 106.027 149.067 92.7368C149.047 90.7131 149.067 88.7167 149.067 86.693C149.72 86.4742 150.353 86.2828 151.006 86.0641H150.986ZM167.392 143.739C166.515 148.06 156.516 152.107 146.088 151.287C153.169 148.771 160.23 146.282 167.392 143.739ZM124.927 299.645C124.519 299.262 124.111 298.879 123.683 298.496C122.519 287.284 121.377 276.044 120.193 264.832C118.744 251.049 117.316 237.239 115.765 223.483C115.051 217.221 118.03 210.466 122.254 207.485C125.703 205.024 128.927 201.797 131.825 198.269C134.477 195.069 136.498 193.675 139.946 196.765C146.823 202.891 149.108 211.204 148.047 221.733C145.272 249.189 136.62 273.501 125.825 296.691C125.417 297.594 125.213 298.688 124.927 299.672V299.645ZM150.802 375.451C148.17 372.962 146.068 370.802 143.823 368.915C140.293 365.934 136.742 362.953 133.049 360.355C128.519 357.183 126.805 353.573 129.253 347.776C134.192 336.126 139.864 325.023 145.252 313.701C154.23 333.664 152.557 353.956 150.802 375.451ZM175.33 400.719C168.065 393.336 161.576 387.347 155.74 380.346C154.353 378.678 154.944 373.673 155.087 370.255C155.516 359.808 156.536 349.362 156.638 338.915C156.72 330.164 160.719 324.23 164.045 317.995C166.31 313.728 169.657 315.779 170.739 320.182C172.575 327.703 174.371 335.442 174.942 343.263C176.044 358.414 176.35 373.701 176.779 388.933C176.86 392.242 176.003 395.633 175.35 400.774L175.33 400.719ZM194.287 209.18C194.43 217.084 191.287 224.987 190.532 233.055C188.308 257.147 186.533 281.322 184.574 305.47C184.553 305.798 184.206 306.099 183.737 306.892C179.921 298.633 174.575 294.203 167.27 294.148C159.842 294.093 154.74 299.863 148.863 305.606C149.435 302.954 150.047 300.301 150.537 297.621C154.291 277.603 158.311 257.667 161.617 237.512C163.188 227.913 164.045 217.904 164.045 208.059C164.045 191.979 159.087 178.634 148.7 169.965C144.782 166.683 146.129 162.362 146.639 158.643C146.864 156.948 149.802 155.006 151.618 154.787C155.863 154.213 160.168 154.596 165.249 154.596C165.331 154.24 165.76 152.6 166.249 150.713C166.596 151.232 167.065 151.588 167.106 152.025C167.514 155.826 168.269 159.682 168.147 163.484C167.188 191.925 166.004 220.338 164.984 248.752C164.78 254.659 164.943 260.62 164.943 267.922C166.372 266.391 167.494 265.789 167.759 264.777C168.392 262.371 168.841 259.773 168.963 257.229C170.371 227.12 171.657 196.984 173.126 166.875C173.351 162.034 174.248 157.248 174.799 152.791C177.064 152.627 178.615 152.517 180.146 152.408C180.166 151.834 180.207 151.259 180.227 150.685L174.881 148.251C174.656 147.568 174.452 146.884 174.228 146.2C177.309 143.657 180.166 140.321 183.492 138.735C190.002 135.617 192.185 127.796 195.552 121.123C196.47 119.291 197.572 117.595 198.572 115.845C199.429 117.732 200.449 119.537 201.102 121.561C202.796 126.866 204.347 132.281 205.959 137.695C202.735 139.391 200.266 141.004 197.633 141.852C196.776 142.125 195.389 139.391 194.552 139.692C190.104 141.196 185.329 141.961 182.064 147.048C181.635 147.704 181.431 149.673 181.594 149.783C182.635 150.494 183.982 151.615 184.941 151.232C190.328 149.126 195.654 146.692 200.96 144.259C202.898 143.383 204.776 142.208 207.836 140.539C208.693 145.981 210.02 150.795 210.101 155.635C210.244 164.441 209.775 173.274 209.265 182.08C209.183 183.556 207.714 185.553 206.551 186.1C198.348 189.955 194.062 196.519 194.287 209.18ZM235.915 381.85C235.507 385.186 234.364 388.441 233.201 391.504C229.201 401.895 223.039 402.825 217.264 393.664C209.816 381.905 205.224 368.067 203.163 353.054C199.021 322.944 198.776 292.644 201.96 262.316C202.164 260.456 202.347 258.241 203.163 256.874C207.408 249.846 211.652 242.817 216.284 236.282C218.427 233.273 221.753 233.137 223.059 237.567C228.038 254.577 233.67 271.422 237.098 289.007C239.894 303.418 239.894 318.788 241.282 335.715C239.649 350.018 237.915 365.961 235.935 381.85H235.915Z" fill="white" stroke="black" stroke-width="8" mask="url(#path-1-inside-1_231_16162)"/>
</svg>
