<svg width="603" height="591" viewBox="0 0 603 591" fill="none" xmlns="http://www.w3.org/2000/svg">
<path d="M203.865 244.083C188.468 243.131 174.323 244.985 163.347 257.043C146.317 275.815 179.057 306.108 195.731 316.028C198.032 317.456 200.988 321.167 203.641 321.03C207.411 317.917 210.174 327.557 212.664 321.881C235.074 325.853 250.38 309.101 253.195 287.417C255.561 289.677 257.61 291.673 259.681 293.65C259.794 293.561 259.885 293.489 259.999 293.4C259.07 292.032 258.137 290.706 257.209 289.338C257.299 289.267 257.39 289.195 257.459 289.142L275.039 311.488L274.766 311.702C274.103 311.046 273.463 310.373 272.782 309.694C278.568 312.465 275.539 333.875 282.882 328.614C283.982 331.134 285.025 333.442 286.187 336.135C304.228 312.335 347.332 331.898 346.376 269.496C353.653 279.118 362.901 287.226 360.843 300.328C360.2 305.029 362.295 306.289 367.114 305.772C374.529 306.122 374.678 318.333 378.725 323.43C384.794 333.671 387.004 344.151 389.055 355.787C395.407 347.956 402.404 340.243 398.092 329.429C398.041 322.955 382.123 299.963 388.765 298.675C405.196 290.276 426.696 288.413 432.899 267.155C441.999 320.869 512.015 382.966 562.012 338.736C563.679 336.504 563.489 334.813 561.498 333.546C594.825 293.856 557.933 233.117 514.92 217.458C490.688 207.521 457.818 208.171 447.004 236.479C445.751 232.828 448.28 230.102 443.479 229.941C435.368 230.25 436.057 242.773 432.801 248.132C406.692 219.062 361.152 219.044 324.866 222.087C316.4 228.306 320.638 243.189 322.904 252.338C323.983 250.201 324.607 248.936 325.488 247.25C332.321 254.203 339.611 259.914 344.207 269.031C325.523 249.025 296.411 240.463 269.657 240.606C254.154 240.548 255.507 253.027 255.845 264.87C242.511 254.051 229.403 243.423 215.674 232.289C237.42 226.295 260.193 225.161 282.167 220.533C289.142 222.149 285.91 210.228 287.186 206.096C287.713 197.879 242.766 207.736 234.579 206.779L234.683 206.771C224.616 212.078 194.686 208.465 196.717 223.723C196.264 231.661 198.789 238.286 203.761 244.091L203.865 244.083ZM241.327 295.208C241.851 298.587 237.282 300.452 234.721 301.547C212.8 310.218 192.792 296.295 179.69 279.921C179.655 276.415 179.596 273.113 179.559 269.277C177.173 269.94 175.494 270.378 173.832 270.839C195.506 253.199 230.695 273.321 241.287 295.203L241.327 295.208ZM442.175 248.632C442.801 246.153 444.003 243.845 445.608 241.442C445.166 246.353 446.699 252.324 444.013 256.535C441.555 254.346 441.448 251.45 442.153 248.65L442.175 248.632ZM460.384 293.155C453.083 282.191 444.791 270.202 444.146 256.798C444.905 257.342 445.624 257.881 446.535 258.525C467.042 227.707 452.656 242.448 477.798 247.693C480.649 242.617 476.351 237.902 477.268 232.285C479.64 233.989 481.652 235.424 483.911 237.032C487.98 231.586 490.308 228.136 497.716 230.441C532.28 238.027 559.084 268.868 562.253 304.098C565.421 321.737 554.178 335.514 536.659 336.122C536.649 336.203 536.621 336.261 536.594 336.32C506.213 336.484 478.268 316.588 460.384 293.155ZM373.221 280.321C364.356 267.275 355.877 253.925 344.596 242.3C367.526 239.682 411.249 246.465 423.048 262.539C416.257 266.116 376.673 287.469 373.226 280.281L373.221 280.321ZM290.117 303.895C290.499 302.416 288.513 300.593 290.79 299.464C289.586 298.682 288.14 296.985 287.262 297.271C281.854 298.397 281.944 291.776 279.045 288.278C279.84 288.867 280.199 289.137 280.235 289.182C275.705 280.711 271.002 271.973 265.964 262.576C278.544 256.065 361.175 278.389 326.505 294.993C321.997 298.245 289.527 313.155 290.112 303.935L290.117 303.895Z" fill="white" stroke="black" stroke-width="4"/>
<path d="M144.812 267.908C111.393 257.286 76.3372 250.713 41.2806 253.12C39.016 253.282 38.2453 254.735 38.528 257.2C38.6319 269.962 48.948 275.169 57.0921 283.041C43.0106 280.907 29.1267 272.803 15.9299 274.647C14.6892 277.795 17.9882 282.081 18.2324 285.386C18.8964 289.832 21.5032 291.461 25.6301 292.263C45.7799 295.327 64.0892 303.63 82.4831 312.087C72.266 316.923 60.2521 316.622 49.3533 319.75C38.4019 322.109 40.2175 321.049 41.2134 331.343C42.0228 339.576 42.1805 339.636 50.1529 338.074C79.9567 332.218 113.009 326.235 141.536 340.227C146.721 342.515 151.482 338.695 152.327 333.688C155.426 324.809 145.733 323.014 139.211 318.981C149.641 314.603 157.032 308.42 158.804 297.199C166.67 304.297 170.627 315.316 179.577 320.236C175.351 306.631 161.674 296.45 157.274 282.063C154.979 275.918 148.771 272.706 144.749 267.921L144.812 267.908ZM145.532 295.533C133.672 302.398 117.841 310.436 104.308 308.018C90.5596 295.501 77.1438 282.613 63.3904 270.136L63.8152 268.992C87.3644 270.67 111.211 272.96 133.074 282.552C136.847 285.289 154.021 290.326 145.549 295.556L145.532 295.533Z" fill="white" stroke="black" stroke-width="4"/>
</svg>
