<svg width="577" height="547" viewBox="0 0 577 547" fill="none" xmlns="http://www.w3.org/2000/svg">
<path d="M326.526 211.259C339.389 235.517 351.992 259.738 365.06 283.691C376.087 303.9 387.555 323.885 401.319 342.432C405.244 347.744 409.467 352.832 415.544 356.566C415.77 355.54 416.018 354.866 416.048 354.179C416.771 324.457 413.233 295.377 403.137 267.303C395.949 247.28 383.298 231.152 366.41 218.554C349.581 206.047 332.189 194.37 315.041 182.271C299.521 171.308 284.131 160.167 270.933 146.402C265.571 140.796 260.732 134.478 256.709 127.871C251.679 119.638 252.081 111.129 258.237 103.153C261.475 98.9604 264.441 94.5551 267.247 90.0854C273.25 80.4694 282.043 77.3983 292.824 78.9423C300.339 80.0388 306.838 83.4809 312.68 88.2071C320.254 94.3281 326.044 101.928 330.528 110.522C330.987 111.435 331.198 113.023 330.683 113.769C326.566 120.02 322.281 126.173 318.004 132.359C317.849 132.579 317.491 132.711 317.051 132.936C306.157 114.692 293.76 98.7104 269.735 100.036C269.355 100.352 268.984 100.702 268.604 101.018C270.02 104.035 271.196 107.223 272.894 110.093C278.609 119.679 286.652 127.283 294.966 134.564C312.734 150.18 332.33 163.41 351.884 176.617C356.51 179.739 361.153 182.927 365.788 186.082C369.226 178.369 376.091 176.637 383.162 175.278C384.314 175.041 385.43 174.671 386.931 174.268C385.526 171.428 384.431 169.076 383.236 166.75C368.524 137.59 353.911 108.403 339.007 79.3297C336.998 75.4352 337.053 72.7037 339.709 69.2751C343.751 64.0811 347.301 58.5186 351.135 52.9511C351.814 53.4841 352.404 53.6836 352.629 54.1237C357.499 64.2939 362.111 74.5687 367.139 84.6608C380.662 111.781 394.309 138.832 407.98 165.84C408.431 166.72 409.982 167.842 410.716 167.645C419.799 165.39 428.82 162.901 438.159 160.399C437.608 159.009 437.055 157.478 436.443 155.997C422.858 123.174 409.24 90.3604 395.688 57.5287C393.872 53.1535 392.348 48.6643 390.814 44.142C390.462 43.0926 390.184 41.5227 390.681 40.7102C394.993 34.1212 399.507 27.6211 404.372 20.5621C406.398 25.9891 408.121 30.8181 410.026 35.5268C417.071 53.0144 424.074 70.4776 431.277 87.8872C438.987 106.52 446.921 125.056 454.754 143.619C456.151 146.963 457.623 150.322 458.919 153.692C459.638 155.573 460.684 156.008 462.729 155.638C472.901 153.842 483.117 152.213 493.901 150.432C493.317 151.589 492.916 152.626 492.327 153.499C488.959 158.405 485.379 163.189 482.265 168.242C480.56 170.951 478.413 172.277 475.43 172.754C473.058 173.104 470.678 173.563 467.847 174.072C469.87 178.82 471.764 183.353 473.716 187.835C497.032 241.501 523.141 293.846 548.652 346.495C555.047 359.689 560.993 373.074 566.839 386.486C568.53 390.394 569.598 394.648 570.372 398.873C571.158 403.274 570.492 407.456 567.491 411.335C563.401 416.613 559.844 422.285 555.912 428.021C555.473 427.317 555.141 427.013 555.187 426.786C556.694 418.267 553.842 410.559 550.392 403.154C538.636 377.956 526.88 352.758 514.683 327.785C490.968 279.303 468.059 230.496 447.045 180.754C446.05 178.375 445.024 177.613 442.438 178.234C434.104 180.217 425.707 181.967 416.761 183.935C418.449 187.701 419.986 190.9 421.373 194.21C429.56 213.823 437.78 233.426 445.808 253.117C451.338 266.685 456.486 280.427 462.016 293.995C463.284 297.123 463.104 299.388 461.047 302.119C457.008 307.456 453.409 313.103 449.19 319.238C448.303 317.26 447.609 315.872 447.007 314.425C433.62 281.406 420.299 248.37 406.745 215.396C403.53 207.535 399.609 199.97 395.854 192.361C395.386 191.414 393.707 190.219 392.865 190.409C387.932 191.481 383.056 192.895 377.286 194.441C378.994 195.878 380.107 196.831 381.278 197.732C395.999 209.445 407.951 223.366 415.515 240.787C420.847 253.085 424.364 265.941 426.679 279.119C429.949 297.726 431.889 316.439 430.917 335.359C430.438 345.176 428.262 354.266 421.852 362.097C418.652 366.029 416.121 370.46 413.15 374.581C409.63 379.456 405.446 380.649 400.628 377.078C396.022 373.63 391.324 369.705 388.129 364.984C377.46 349.183 366.683 333.374 357.341 316.788C342.077 289.706 327.891 261.977 313.249 234.55C312.246 232.674 312.279 231.199 313.547 229.393C317.442 223.917 321.201 218.334 325.011 212.809C325.42 212.199 325.964 211.696 326.4 211.186L326.526 211.259Z" fill="white" stroke="black" stroke-width="4"/>
<path d="M42.5688 136.096C42.6104 135.584 42.6837 135.457 42.6324 135.399C38.3527 131.434 40.9623 128.233 43.5338 124.755C47.0892 120.013 50.2884 115.009 53.8366 109.84C54.5001 110.449 55.0165 110.775 55.3596 111.255C69.6079 133.212 85.4273 153.961 101.851 174.297C104.101 177.091 104.259 179.015 102.029 181.9C98.3893 186.593 95.1145 191.582 91.9153 196.586C90.4301 198.914 89.4401 198.822 87.3518 197.165C75.4138 187.566 63.5001 177.925 51.2423 168.733C44.804 163.916 37.6219 160.193 29.1444 157.638C29.4977 159.224 29.6503 160.327 29.9786 161.418C34.3678 176.865 41.0534 191.41 48.1703 205.697C74.0516 257.46 106.02 305.126 145.654 347.377C154.609 356.918 164.817 365.264 174.694 373.843C177.763 376.488 181.71 378.147 185.272 380.231C185.603 380 185.934 379.768 186.265 379.536C185.711 374.001 185.391 368.403 184.528 362.914C181.376 342.346 174.253 323.234 162.704 305.881C161.02 303.33 161.106 301.519 162.867 299.152C166.283 294.555 169.342 289.696 172.715 285.075C174.001 283.336 174.222 282.026 173.016 280.061C147.273 238.02 121.579 195.894 95.8367 153.853C94.6822 151.946 94.6274 150.673 95.9376 148.892C99.7925 143.534 103.376 137.962 107.273 132.628C108.336 131.128 110.061 130.094 111.779 128.633C112.583 129.633 113.385 130.49 114.071 131.45C128.326 151.296 147.208 164.397 170.761 170.919C178.099 172.956 185.407 175.145 192.472 177.899C206.627 183.365 210.004 190.897 204.749 205.174C202.29 211.874 198.973 218.304 196.16 224.885C194.838 227.956 193.728 231.149 192.218 234.985C199.191 231.258 205.366 227.888 211.568 224.617C213.793 223.449 216.145 222.354 218.51 221.577C221.959 220.439 223.739 221.213 225.102 224.565C227.208 229.756 228.965 235.113 231.047 240.346C238.01 257.927 247.264 274.322 256.835 290.561C272.104 316.462 287.507 342.328 302.934 368.151C304.227 370.307 304.462 371.852 302.865 374.032C298.648 379.773 294.703 385.728 290.427 391.914C289.674 390.972 289.052 390.388 288.647 389.674C269.497 357.163 250.256 324.712 231.264 292.122C223.044 277.988 216.427 263.031 211.266 247.505C209.44 242.025 207.947 241.388 202.72 243.896C196.58 246.864 190.597 250.148 184.228 253.463C187.357 258.737 190.212 263.656 193.134 268.557C210.864 298.303 229.289 327.577 249.546 355.681C253.01 360.472 252.952 360.523 249.624 365.312C246.606 369.659 243.631 374.031 240.656 378.403C238.809 381.115 236.51 381.385 233.759 379.215C234.051 379.101 234.3 378.963 234.591 378.849C233.897 376.926 233.567 374.762 232.484 373.122C219.754 353.761 206.932 334.461 194.153 315.185C193.56 314.308 192.968 313.43 191.793 312.779C192.474 314.921 193.146 317.028 193.827 319.17C198.798 334.389 201.706 349.911 200.762 366C200.396 372.104 198.688 377.602 194.943 382.573C191.306 387.409 188.076 392.564 184.583 397.539C181.45 401.989 177.86 403.666 172.875 401.606C167.739 399.514 162.626 396.845 158.223 393.485C140.933 380.458 126.501 364.485 112.729 347.906C76.4542 304.183 45.9652 256.836 23.4175 204.573C19.1908 194.802 16.3023 184.423 13.374 174.161C11.4175 167.393 12.8245 160.903 17.4019 155.172C20.6089 151.131 23.5263 146.81 26.199 142.377C29.6465 136.698 34.4463 134.733 40.7736 135.933C41.3031 136.041 41.848 136.074 42.5532 136.171L42.5688 136.096ZM180.038 246.364C183.308 239.089 186.508 232.619 189.175 225.898C195.138 210.931 192.21 204.137 177.031 198.588C168.233 195.369 159.161 192.866 150.252 190.034C148.728 189.549 147.262 189.012 144.912 188.248C156.784 207.874 168.157 226.704 180.038 246.364Z" fill="white" stroke="black" stroke-width="4"/>
<path d="M204.689 130.375C218.366 160.206 233.567 188.52 249.922 216.204C266.175 243.772 282.427 271.34 304.849 294.717C303.309 290.84 301.803 286.954 300.273 283.11C289.678 256.242 279.432 229.21 268.378 202.501C260.747 184.026 250.964 166.593 240.127 149.764C237.865 146.259 235.777 142.6 233.846 138.864C233.336 137.892 233.113 136.129 233.644 135.307C237.849 128.854 242.274 122.556 246.82 115.905C247.35 116.549 247.724 116.878 247.973 117.276C259.648 137.098 272.26 156.418 281.32 177.691C288.568 194.732 295.49 211.895 302.379 229.067C310.187 248.602 317.804 268.224 325.388 287.855C327.787 294.005 329.927 300.259 332.068 306.513C333.15 309.619 332.52 312.469 330.539 315.216C326.684 320.575 322.932 326.049 319.297 331.563C317.517 334.256 315.118 335.042 312.474 333.713C308.757 331.849 305.004 329.852 301.769 327.251C288.959 317.063 278.894 304.317 269.516 291.065C248.272 261.01 230.037 229.111 212.707 196.72C205.261 182.807 198.571 168.513 191.441 154.444C190.358 152.268 190.474 150.7 191.882 148.749C196.096 142.866 200.166 136.842 204.671 130.308L204.689 130.375Z" fill="white" stroke="black" stroke-width="4"/>
</svg>
