<svg width="281" height="65" viewBox="0 0 281 65" fill="none" xmlns="http://www.w3.org/2000/svg">
<rect x="71.0311" y="2.44949" width="43" height="71" rx="21.5" transform="rotate(75 71.0311 2.44949)" fill="white" stroke="black" stroke-width="4"/>
<path d="M34.347 56.7958C22.8775 59.8691 11.0882 53.0626 8.01497 41.593C4.94173 30.1235 11.7482 18.3343 23.2178 15.261L34.8089 12.1552L45.9381 53.69L34.347 56.7958Z" fill="#FF2300" stroke="black" stroke-width="4"/>
<rect x="267.031" y="2.44949" width="43" height="71" rx="21.5" transform="rotate(75 267.031 2.44949)" fill="white" stroke="black" stroke-width="4"/>
<path d="M230.347 56.7958C218.877 59.8691 207.088 53.0626 204.015 41.593C200.942 30.1235 207.748 18.3343 219.218 15.261L230.809 12.1552L241.938 53.69L230.347 56.7958Z" fill="#FF2300" stroke="black" stroke-width="4"/>
<rect x="-1.41421" y="-2.44949" width="43" height="71" rx="21.5" transform="matrix(0.258819 -0.965926 -0.965926 -0.258819 167.031 60.5505)" fill="white" stroke="black" stroke-width="4"/>
<path d="M132.347 8.20416C120.877 5.13091 109.088 11.9374 106.015 23.407C102.942 34.8765 109.748 46.6657 121.218 49.739L132.809 52.8448L143.938 11.31L132.347 8.20416Z" fill="#FF2300" stroke="black" stroke-width="4"/>
</svg>
