<svg width="74" height="77" viewBox="0 0 74 77" fill="none" xmlns="http://www.w3.org/2000/svg">
<path d="M59.7761 26.635C69.0479 42.1373 64.6438 61.593 50.2826 70.1823C35.9214 78.7717 16.6969 73.4482 7.42507 57.9459C-1.8468 42.4436 2.55731 22.9879 16.9185 14.3985C31.2797 5.80913 50.5042 11.1327 59.7761 26.635Z" fill="white" stroke="black" stroke-width="4"/>
<path d="M4 42L9.5 35" stroke="black" stroke-width="5" stroke-linecap="round" stroke-linejoin="round"/>
<path d="M7 55L12.5 48" stroke="black" stroke-width="5" stroke-linecap="round" stroke-linejoin="round"/>
<path d="M15 64L20.5 57" stroke="black" stroke-width="5" stroke-linecap="round" stroke-linejoin="round"/>
<path d="M26 71L31.5 64" stroke="black" stroke-width="5" stroke-linecap="round" stroke-linejoin="round"/>
<path d="M38 73L43.5 66" stroke="black" stroke-width="5" stroke-linecap="round" stroke-linejoin="round"/>
<path d="M66.7761 19.635C76.0479 35.1373 71.6438 54.593 57.2826 63.1823C42.9214 71.7717 23.6969 66.4482 14.4251 50.9459C5.1532 35.4436 9.55731 15.9879 23.9185 7.39851C38.2797 -1.19087 57.5042 4.13267 66.7761 19.635Z" fill="white" stroke="black" stroke-width="4"/>
<path d="M33.7993 27.6916L41.2501 34.0575L34.4739 35.5747C33.9728 34.96 33.1089 34.0918 31.8822 32.97L31.0519 32.209C30.9793 32.3974 30.8905 32.599 30.7856 32.8138C30.6989 33.0245 30.6162 33.2535 30.5376 33.5006C30.2875 34.0922 30.0536 34.6706 29.8358 35.2358C29.6363 35.797 29.4791 36.2913 29.3644 36.7187L22.5882 38.2358L26.6132 29.3005L19.4666 23.2682L26.2155 21.7572C26.5847 22.2101 27.2539 22.8924 28.2232 23.804L29.4307 24.9683L29.9327 23.6221C30.4409 22.3032 30.7774 21.3288 30.9425 20.6989L37.6914 19.1878L33.7993 27.6916ZM54.4576 15.434C54.9578 18.0957 55.4466 20.4921 55.9237 22.6234C56.3927 24.7182 56.9725 27.0942 57.6631 29.7515L52.0618 31.0056L50.2457 21.4844L48.1819 31.8743L40.5586 33.5811C40.1296 31.1522 39.6499 28.7537 39.1198 26.3856C38.5814 23.9812 37.9925 21.6072 37.353 19.2636L42.7358 18.0584L44.6342 27.8195L46.643 17.1836L54.4576 15.434ZM37.5135 44.2809L44.9643 50.6468L38.1881 52.164C37.687 51.5493 36.8231 50.681 35.5964 49.5593L34.7661 48.7983C34.6935 48.9867 34.6047 49.1883 34.4998 49.4031C34.4131 49.6138 34.3304 49.8427 34.2519 50.0899C34.0017 50.6815 33.7678 51.2599 33.55 51.8251C33.3505 52.3863 33.1933 52.8806 33.0786 53.308L26.3024 54.8251L30.3274 45.8898L23.1808 39.8575L29.9297 38.3465C30.2989 38.7994 30.9681 39.4817 31.9374 40.3933L33.1449 41.5576L33.647 40.2114C34.1551 38.8925 34.4916 37.9181 34.6567 37.2882L41.4056 35.7771L37.5135 44.2809ZM58.1718 32.0233C58.6721 34.685 59.1608 37.0814 59.638 39.2127C60.107 41.3075 60.6868 43.6835 61.3774 46.3408L55.776 47.5949L53.9599 38.0737L51.8961 48.4636L44.2728 50.1704C43.8438 47.7415 43.3642 45.343 42.834 42.9749C42.2956 40.5705 41.7067 38.1964 41.0672 35.8529L46.45 34.6477L48.3485 44.4088L50.3572 33.7729L58.1718 32.0233Z" fill="black"/>
</svg>
