<svg width="65" height="85" viewBox="0 0 65 85" fill="none" xmlns="http://www.w3.org/2000/svg">
<path d="M6.08225 34.8637C2.72312 22.3273 10.1628 9.44137 22.6993 6.08224V6.08224C35.2357 2.72311 48.1216 10.1628 51.4808 22.6993L58.7277 49.7452C62.0868 62.2816 54.6471 75.1675 42.1107 78.5267V78.5267C29.5742 81.8858 16.6883 74.4461 13.3292 61.9097L6.08225 34.8637Z" fill="white"/>
<path fill-rule="evenodd" clip-rule="evenodd" d="M54.864 50.7805L47.6171 23.7345C44.8297 13.3319 34.1371 7.15858 23.7345 9.94595C13.3319 12.7333 7.15859 23.4259 9.94595 33.8285L17.1929 60.8744C19.9802 71.277 30.6728 77.4503 41.0754 74.663C51.478 71.8756 57.6514 61.183 54.864 50.7805ZM22.6993 6.08224C10.1628 9.44137 2.72312 22.3273 6.08225 34.8637L13.3292 61.9097C16.6883 74.4461 29.5742 81.8858 42.1107 78.5267C54.6471 75.1675 62.0868 62.2816 58.7277 49.7452L51.4808 22.6993C48.1216 10.1628 35.2357 2.72311 22.6993 6.08224Z" fill="black"/>
<path fill-rule="evenodd" clip-rule="evenodd" d="M42.1107 78.5267C54.6471 75.1675 62.0868 62.2816 58.7277 49.7452L55.1042 36.2222L9.70571 48.3867L13.3292 61.9097C16.6883 74.4461 29.5742 81.8858 42.1107 78.5267V78.5267Z" fill="#FF2300"/>
<path fill-rule="evenodd" clip-rule="evenodd" d="M54.8638 50.7805L52.2756 41.1212L14.6045 51.2152L17.1927 60.8744C19.98 71.277 30.6726 77.4504 41.0752 74.663C51.4778 71.8756 57.6511 61.1831 54.8638 50.7805ZM13.329 61.9097C16.6881 74.4461 29.574 81.8858 42.1105 78.5267C54.6469 75.1676 62.0866 62.2816 58.7275 49.7452L55.104 36.2222L9.7055 48.3867L13.329 61.9097Z" fill="black"/>
</svg>
