<svg width="98" height="110" viewBox="0 0 98 110" fill="none" xmlns="http://www.w3.org/2000/svg">
<path d="M52.8464 5.19012C51.7421 1.32044 46.2579 1.32037 45.1536 5.19011L36.9131 34.0649L7.78659 26.764C3.88316 25.7855 1.14106 30.5349 3.94015 33.4262L24.8262 55L3.94016 76.5738C1.1411 79.4651 3.8831 84.2145 7.78658 83.236L36.9131 75.9351L45.1536 104.81C46.2579 108.68 51.7421 108.68 52.8464 104.81L61.0869 75.9351L90.2134 83.236C94.1168 84.2145 96.8589 79.4651 94.0598 76.5738L73.1738 55L94.0598 33.4262C96.8589 30.5349 94.1169 25.7855 90.2134 26.764L61.0869 34.0649L52.8464 5.19012Z" fill="#008D5E" stroke="black" stroke-width="4"/>
</svg>
