<svg width="75" height="75" viewBox="0 0 75 75" fill="none" xmlns="http://www.w3.org/2000/svg">
<mask id="path-1-inside-1_124_5492" fill="white">
<path fill-rule="evenodd" clip-rule="evenodd" d="M31.1034 0.028273L10.0453 11.3833L21.4005 32.4417L0.343485 43.7962L11.6986 64.8544L32.7556 53.4999L44.1105 74.5578L65.1687 63.2027L53.8137 42.1448L74.873 30.7892L63.5179 9.731L42.4587 21.0867L31.1034 0.028273Z"/>
</mask>
<path fill-rule="evenodd" clip-rule="evenodd" d="M31.1034 0.028273L10.0453 11.3833L21.4005 32.4417L0.343485 43.7962L11.6986 64.8544L32.7556 53.4999L44.1105 74.5578L65.1687 63.2027L53.8137 42.1448L74.873 30.7892L63.5179 9.731L42.4587 21.0867L31.1034 0.028273Z" fill="#FFF1BF"/>
<path d="M10.0453 11.3833L8.14681 7.86258L4.62605 9.76106L6.52453 13.2818L10.0453 11.3833ZM31.1034 0.028273L34.6242 -1.87021L32.7257 -5.39097L29.205 -3.49249L31.1034 0.028273ZM21.4005 32.4417L23.299 35.9625L26.8197 34.064L24.9213 30.5433L21.4005 32.4417ZM0.343485 43.7962L-1.555 40.2754L-5.07576 42.1739L-3.17728 45.6947L0.343485 43.7962ZM11.6986 64.8544L8.17779 66.7528L10.0763 70.2736L13.597 68.3751L11.6986 64.8544ZM32.7556 53.4999L36.2763 51.6014L34.3778 48.0807L30.8571 49.9791L32.7556 53.4999ZM44.1105 74.5578L40.5897 76.4563L42.4882 79.9771L46.009 78.0786L44.1105 74.5578ZM65.1687 63.2027L67.0671 66.7235L70.5879 64.825L68.6894 61.3043L65.1687 63.2027ZM53.8137 42.1448L51.9152 38.6241L48.3945 40.5226L50.293 44.0433L53.8137 42.1448ZM74.873 30.7892L76.7715 34.3099L80.2923 32.4114L78.3938 28.8907L74.873 30.7892ZM63.5179 9.731L67.0387 7.83252L65.1402 4.31175L61.6195 6.21024L63.5179 9.731ZM42.4587 21.0867L38.9379 22.9852L40.8364 26.5059L44.3571 24.6074L42.4587 21.0867ZM11.9438 14.9041L33.0019 3.54904L29.205 -3.49249L8.14681 7.86258L11.9438 14.9041ZM24.9213 30.5433L13.5661 9.48486L6.52453 13.2818L17.8797 34.3402L24.9213 30.5433ZM2.24197 47.317L23.299 35.9625L19.502 28.921L-1.555 40.2754L2.24197 47.317ZM15.2193 62.9559L3.86425 41.8977L-3.17728 45.6947L8.17779 66.7528L15.2193 62.9559ZM30.8571 49.9791L9.80007 61.3336L13.597 68.3751L34.654 57.0207L30.8571 49.9791ZM47.6313 72.6593L36.2763 51.6014L29.2348 55.3984L40.5897 76.4563L47.6313 72.6593ZM63.2702 59.682L42.212 71.037L46.009 78.0786L67.0671 66.7235L63.2702 59.682ZM50.293 44.0433L61.6479 65.1012L68.6894 61.3043L57.3345 40.2464L50.293 44.0433ZM72.9745 27.2684L51.9152 38.6241L55.7122 45.6656L76.7715 34.3099L72.9745 27.2684ZM59.9972 11.6295L71.3523 32.6876L78.3938 28.8907L67.0387 7.83252L59.9972 11.6295ZM44.3571 24.6074L65.4164 13.2518L61.6195 6.21024L40.5602 17.5659L44.3571 24.6074ZM27.5827 1.92675L38.9379 22.9852L45.9794 19.1882L34.6242 -1.87021L27.5827 1.92675Z" fill="black" mask="url(#path-1-inside-1_124_5492)"/>
</svg>
