<svg width="122" height="116" viewBox="0 0 122 116" fill="none" xmlns="http://www.w3.org/2000/svg">
<path d="M44.2967 3.79669L42.6968 4.99684L44.2967 3.79668C41.8819 0.577532 36.7602 2.53819 37.1123 6.54695L40.143 41.0562L5.75006 45.2031C1.75477 45.6849 0.891922 51.1007 4.53964 52.8002L35.9409 67.43L22.3358 99.2887C20.7553 102.99 25.0141 106.445 28.3098 104.135L56.6803 84.2561L77.4681 111.968C79.8829 115.187 85.0046 113.226 84.6525 109.218L81.6218 74.7083L116.015 70.5614C120.01 70.0797 120.873 64.6639 117.225 62.9644L85.8239 48.3345L99.429 16.4758C101.009 12.7749 96.7507 9.31978 93.455 11.6291L65.0845 31.5084L44.2967 3.79669Z" fill="#008D5E" stroke="black" stroke-width="4"/>
</svg>
