<svg width="112" height="112" viewBox="0 0 112 112" fill="none" xmlns="http://www.w3.org/2000/svg">
<mask id="path-1-inside-1_124_5489" fill="white">
<path fill-rule="evenodd" clip-rule="evenodd" d="M74.5697 0H37.2847V37.2852H1.62979e-06L0 74.5701H37.2847V111.855H74.5697V74.5701H111.855V37.2852H74.5697V0Z"/>
</mask>
<path fill-rule="evenodd" clip-rule="evenodd" d="M74.5697 0H37.2847V37.2852H1.62979e-06L0 74.5701H37.2847V111.855H74.5697V74.5701H111.855V37.2852H74.5697V0Z" fill="#FFF1BF"/>
<path d="M37.2847 0V-4H33.2847V0H37.2847ZM74.5697 0H78.5697V-4H74.5697V0ZM37.2847 37.2852V41.2852H41.2847V37.2852H37.2847ZM1.62979e-06 37.2852V33.2852H-4L-4 37.2852L1.62979e-06 37.2852ZM0 74.5701L-4 74.5701L-4 78.5701H0V74.5701ZM37.2847 74.5701H41.2847V70.5701H37.2847V74.5701ZM37.2847 111.855H33.2847V115.855H37.2847V111.855ZM74.5697 111.855V115.855H78.5697V111.855H74.5697ZM74.5697 74.5701V70.5701H70.5697V74.5701H74.5697ZM111.855 74.5701V78.5701H115.855V74.5701H111.855ZM111.855 37.2852H115.855V33.2852H111.855V37.2852ZM74.5697 37.2852H70.5697V41.2852H74.5697V37.2852ZM37.2847 4H74.5697V-4H37.2847V4ZM41.2847 37.2852V0H33.2847V37.2852H41.2847ZM1.62979e-06 41.2852H37.2847V33.2852H1.62979e-06V41.2852ZM4 74.5701L4 37.2852L-4 37.2852L-4 74.5701L4 74.5701ZM37.2847 70.5701H0V78.5701H37.2847V70.5701ZM41.2847 111.855V74.5701H33.2847V111.855H41.2847ZM74.5697 107.855H37.2847V115.855H74.5697V107.855ZM70.5697 74.5701V111.855H78.5697V74.5701H70.5697ZM111.855 70.5701H74.5697V78.5701H111.855V70.5701ZM107.855 37.2852V74.5701H115.855V37.2852H107.855ZM74.5697 41.2852H111.855V33.2852H74.5697V41.2852ZM70.5697 0V37.2852H78.5697V0H70.5697Z" fill="black" mask="url(#path-1-inside-1_124_5489)"/>
</svg>
