<svg width="70" height="78" viewBox="0 0 70 78" fill="none" xmlns="http://www.w3.org/2000/svg">
<path d="M44.0312 23.3575L38.8464 5.19012C37.7421 1.3204 32.2579 1.32042 31.1536 5.19012L25.9688 23.3575L7.64299 18.764C3.73954 17.7855 0.997493 22.5349 3.79657 25.4262L16.9377 39L3.79657 52.5738C0.997472 55.4651 3.73957 60.2145 7.643 59.236L25.9688 54.6425L31.1536 72.8099C32.2579 76.6796 37.7421 76.6796 38.8464 72.8099L44.0312 54.6424L62.357 59.236C66.2605 60.2145 69.0025 55.4651 66.2034 52.5738L53.0623 39L66.2034 25.4262C69.0025 22.5349 66.2604 17.7855 62.357 18.764L44.0312 23.3575Z" fill="white" stroke="black" stroke-width="4"/>
</svg>
