<svg width="688" height="403" viewBox="0 0 688 403" fill="none" xmlns="http://www.w3.org/2000/svg">
<rect x="585.512" y="128.943" width="37.4122" height="140.943" rx="18.7061" transform="rotate(-135 585.512 128.943)" fill="#FF2300" stroke="black" stroke-width="4"/>
<rect x="2.38419e-07" y="-2.82843" width="37.4122" height="140.943" rx="18.7061" transform="matrix(0.707107 -0.707107 -0.707107 -0.707107 583.213 126.943)" fill="#FFA9DD" stroke="black" stroke-width="4"/>
<rect x="438.463" y="128.943" width="37.4122" height="140.943" rx="18.7061" transform="rotate(-135 438.463 128.943)" fill="#FF2300" stroke="black" stroke-width="4"/>
<rect x="2.38419e-07" y="-2.82843" width="37.4122" height="140.943" rx="18.7061" transform="matrix(0.707107 -0.707107 -0.707107 -0.707107 436.164 126.943)" fill="#FFA9DD" stroke="black" stroke-width="4"/>
<rect x="291.521" y="128.943" width="37.4122" height="140.943" rx="18.7061" transform="rotate(-135 291.521 128.943)" fill="#FF2300" stroke="black" stroke-width="4"/>
<rect x="2.38419e-07" y="-2.82843" width="37.4122" height="140.943" rx="18.7061" transform="matrix(0.707107 -0.707107 -0.707107 -0.707107 290.221 126.943)" fill="#FFA9DD" stroke="black" stroke-width="4"/>
<rect x="145.648" y="128.943" width="37.4122" height="140.943" rx="18.7061" transform="rotate(-135 145.648 128.943)" fill="#FF2300" stroke="black" stroke-width="4"/>
<rect x="2.38419e-07" y="-2.82843" width="37.4122" height="140.943" rx="18.7061" transform="matrix(0.707107 -0.707107 -0.707107 -0.707107 143.348 126.943)" fill="#FFA9DD" stroke="black" stroke-width="4"/>
<circle cx="13" cy="13" r="13" transform="matrix(-4.37114e-08 1 1 4.37114e-08 132.006 88.998)" fill="#FFB200" stroke="black" stroke-width="4"/>
<path d="M140.006 96.998L144.756 101.748M149.506 106.498L144.756 101.748M144.756 101.748L140.006 106.498L149.506 96.998" stroke="black" stroke-width="4" stroke-linecap="round" stroke-linejoin="round"/>
<circle cx="13" cy="13" r="13" transform="matrix(-4.37114e-08 1 1 4.37114e-08 205.006 16.998)" fill="#FFB200" stroke="black" stroke-width="4"/>
<path d="M213.006 24.998L217.756 29.748M222.506 34.498L217.756 29.748M217.756 29.748L213.006 34.498L222.506 24.998" stroke="black" stroke-width="4" stroke-linecap="round" stroke-linejoin="round"/>
<circle cx="13" cy="13" r="13" transform="matrix(-4.37114e-08 1 1 4.37114e-08 279.006 88.998)" fill="#FFB200" stroke="black" stroke-width="4"/>
<path d="M287.006 96.998L291.756 101.748M296.506 106.498L291.756 101.748M291.756 101.748L287.006 106.498L296.506 96.998" stroke="black" stroke-width="4" stroke-linecap="round" stroke-linejoin="round"/>
<circle cx="13" cy="13" r="13" transform="matrix(-4.37114e-08 1 1 4.37114e-08 351.006 16.998)" fill="#FFB200" stroke="black" stroke-width="4"/>
<path d="M359.006 24.998L363.756 29.748M368.506 34.498L363.756 29.748M363.756 29.748L359.006 34.498L368.506 24.998" stroke="black" stroke-width="4" stroke-linecap="round" stroke-linejoin="round"/>
<circle cx="13" cy="13" r="13" transform="matrix(-4.37114e-08 1 1 4.37114e-08 424.006 88.998)" fill="#FFB200" stroke="black" stroke-width="4"/>
<path d="M432.006 96.998L436.756 101.748M441.506 106.498L436.756 101.748M436.756 101.748L432.006 106.498L441.506 96.998" stroke="black" stroke-width="4" stroke-linecap="round" stroke-linejoin="round"/>
<circle cx="13" cy="13" r="13" transform="matrix(-4.37114e-08 1 1 4.37114e-08 497.006 16.998)" fill="#FFB200" stroke="black" stroke-width="4"/>
<path d="M505.006 24.998L509.756 29.748M514.506 34.498L509.756 29.748M509.756 29.748L505.006 34.498L514.506 24.998" stroke="black" stroke-width="4" stroke-linecap="round" stroke-linejoin="round"/>
<circle cx="13" cy="13" r="13" transform="matrix(-4.37114e-08 1 1 4.37114e-08 572.006 88.998)" fill="#FFB200" stroke="black" stroke-width="4"/>
<path d="M580.006 96.998L584.756 101.748M589.506 106.498L584.756 101.748M584.756 101.748L580.006 106.498L589.506 96.998" stroke="black" stroke-width="4" stroke-linecap="round" stroke-linejoin="round"/>
<circle cx="13" cy="13" r="13" transform="matrix(-4.37114e-08 1 1 4.37114e-08 645.006 16.998)" fill="#FFB200" stroke="black" stroke-width="4"/>
<path d="M653.006 24.998L657.756 29.748M662.506 34.498L657.756 29.748M657.756 29.748L653.006 34.498L662.506 24.998" stroke="black" stroke-width="4" stroke-linecap="round" stroke-linejoin="round"/>
<rect x="2" y="-2" width="37" height="328" rx="18.5" transform="matrix(1 8.74228e-08 8.74228e-08 -1 48 336)" fill="#FF2300" stroke="black" stroke-width="4"/>
<circle cx="13" cy="13" r="13" transform="matrix(-4.37114e-08 1 1 4.37114e-08 55.0059 16.998)" fill="#FFB200" stroke="black" stroke-width="4"/>
<path d="M63.0059 24.998L67.7559 29.748M72.5059 34.498L67.7559 29.748M67.7559 29.748L63.0059 34.498L72.5059 24.998" stroke="black" stroke-width="4" stroke-linecap="round" stroke-linejoin="round"/>
<circle cx="28" cy="28" r="26" transform="matrix(-1 -8.74228e-08 -8.74228e-08 1 96 183)" fill="#FFB200" stroke="black" stroke-width="4"/>
<path d="M1.99999 276.5L1.99999 324C1.99999 336.151 11.8497 346 24 346L111 346C123.15 346 133 336.151 133 324L133 276.5C133 240.326 103.675 211 67.5 211C31.3253 211 2 240.326 1.99999 276.5Z" fill="#FF2300" stroke="black" stroke-width="4"/>
<rect x="-2" y="2" width="131" height="35" rx="17.5" transform="matrix(-1 -8.74228e-08 -8.74228e-08 1 131 309)" fill="black" stroke="black" stroke-width="4"/>
<path d="M34.775 325.479L21.2331 347.698C16.7656 355.029 16.9697 364.288 21.7558 371.414L33.7866 389.327C36.3694 393.172 41.7196 393.923 45.2607 390.936C48.2189 388.441 48.8935 384.151 46.8437 380.869L35.2882 362.364C34.3092 360.796 34.2749 358.816 35.1991 357.215L48.7387 333.764C50.9806 329.881 49.6502 324.915 45.767 322.673C41.9489 320.469 37.0694 321.715 34.775 325.479Z" fill="#FFF1BF" stroke="black" stroke-width="4"/>
<path d="M99.8207 325.479L113.363 347.698C117.83 355.029 117.626 364.288 112.84 371.414L100.809 389.327C98.2264 393.172 92.8761 393.923 89.335 390.936C86.3768 388.441 85.7023 384.151 87.752 380.869L99.3076 362.364C100.287 360.796 100.321 358.816 99.3967 357.215L85.857 333.764C83.6151 329.881 84.9455 324.915 88.8287 322.673C92.6468 320.469 97.5263 321.715 99.8207 325.479Z" fill="#FFF1BF" stroke="black" stroke-width="4"/>
<path d="M115 257L115 297" stroke="black" stroke-width="4" stroke-linecap="round" stroke-linejoin="round"/>
<path d="M17.5 257L17.5 297" stroke="black" stroke-width="4" stroke-linecap="round" stroke-linejoin="round"/>
<circle cx="17" cy="254" r="13" fill="#FFB200" stroke="black" stroke-width="4"/>
<path d="M12 249L16.75 253.75M21.5 258.5L16.75 253.75M16.75 253.75L21.5 249L12 258.5" stroke="black" stroke-width="4" stroke-linecap="round" stroke-linejoin="round"/>
<circle cx="116" cy="254" r="13" fill="#FFB200" stroke="black" stroke-width="4"/>
<path d="M111 249L115.75 253.75M120.5 258.5L115.75 253.75M115.75 253.75L120.5 249L111 258.5" stroke="black" stroke-width="4" stroke-linecap="round" stroke-linejoin="round"/>
</svg>
