<svg width="216" height="262" viewBox="0 0 216 262" fill="none" xmlns="http://www.w3.org/2000/svg">
<rect x="2" y="2" width="212" height="258" rx="22" fill="#FFA9DD" stroke="black" stroke-width="4"/>
<path d="M50 143L120.5 42L95 124H166L95 220L120.5 143H50Z" fill="#FFB200" stroke="black" stroke-width="5" stroke-linecap="round" stroke-linejoin="round"/>
<circle cx="27" cy="25" r="13" fill="#FFB200" stroke="black" stroke-width="4"/>
<path d="M22 20L26.75 24.75M31.5 29.5L26.75 24.75M26.75 24.75L31.5 20L22 29.5" stroke="black" stroke-width="4" stroke-linecap="round" stroke-linejoin="round"/>
<circle cx="27" cy="235" r="13" fill="#FFB200" stroke="black" stroke-width="4"/>
<path d="M22 230L26.75 234.75M31.5 239.5L26.75 234.75M26.75 234.75L31.5 230L22 239.5" stroke="black" stroke-width="4" stroke-linecap="round" stroke-linejoin="round"/>
<circle cx="190" cy="25" r="13" fill="#FFB200" stroke="black" stroke-width="4"/>
<path d="M185 20L189.75 24.75M194.5 29.5L189.75 24.75M189.75 24.75L194.5 20L185 29.5" stroke="black" stroke-width="4" stroke-linecap="round" stroke-linejoin="round"/>
<circle cx="190" cy="235" r="13" fill="#FFB200" stroke="black" stroke-width="4"/>
<path d="M185 230L189.75 234.75M194.5 239.5L189.75 234.75M189.75 234.75L194.5 230L185 239.5" stroke="black" stroke-width="4" stroke-linecap="round" stroke-linejoin="round"/>
</svg>
