<svg width="308" height="308" viewBox="0 0 308 308" fill="none" xmlns="http://www.w3.org/2000/svg">
<circle cx="153.99" cy="153.959" r="151.67" fill="#0090FF" stroke="black" stroke-width="4"/>
<path d="M156.921 79.059H156.961L157 79.0575L282.924 74.0853C296.868 96.5935 304.68 122.366 305.574 148.842C306.481 175.702 300.234 202.321 287.474 225.973C274.713 249.626 255.897 269.463 232.951 283.455C210.005 297.446 183.753 305.089 156.883 305.602C130.013 306.114 103.489 299.478 80.0258 286.372C56.563 273.266 37.0039 254.16 23.3506 231.012C9.69728 207.863 2.44007 181.502 2.32178 154.627C2.20518 128.136 9.0291 102.083 22.1049 79.0591L156.921 79.059Z" fill="#B4003B" stroke="black" stroke-width="4"/>
<ellipse cx="154.5" cy="81" rx="132.5" ry="17" fill="#FF0054" stroke="black" stroke-width="4"/>
</svg>
