<svg width="308" height="308" viewBox="0 0 308 308" fill="none" xmlns="http://www.w3.org/2000/svg">
<circle cx="153.99" cy="153.959" r="151.67" fill="#0090FF" stroke="black" stroke-width="4"/>
<mask id="path-2-inside-1_268_5068" fill="white">
<path d="M307.66 153.959C307.66 174.139 303.686 194.122 295.963 212.766C288.24 231.41 276.921 248.351 262.652 262.62C248.382 276.89 231.442 288.209 212.797 295.932C194.153 303.654 174.171 307.629 153.99 307.629C133.81 307.629 113.828 303.654 95.1834 295.932C76.5393 288.209 59.5988 276.89 45.3292 262.62C31.0596 248.351 19.7404 231.41 12.0177 212.766C4.2951 194.122 0.320311 174.139 0.320313 153.959L153.99 153.959H307.66Z"/>
</mask>
<path d="M307.66 153.959C307.66 174.139 303.686 194.122 295.963 212.766C288.24 231.41 276.921 248.351 262.652 262.62C248.382 276.89 231.442 288.209 212.797 295.932C194.153 303.654 174.171 307.629 153.99 307.629C133.81 307.629 113.828 303.654 95.1834 295.932C76.5393 288.209 59.5988 276.89 45.3292 262.62C31.0596 248.351 19.7404 231.41 12.0177 212.766C4.2951 194.122 0.320311 174.139 0.320313 153.959L153.99 153.959H307.66Z" fill="#B4003B" stroke="black" stroke-width="8" mask="url(#path-2-inside-1_268_5068)"/>
<ellipse cx="153.18" cy="153.151" rx="146.391" ry="16.9846" fill="#FF0054" stroke="black" stroke-width="4"/>
</svg>
