<svg width="308" height="308" viewBox="0 0 308 308" fill="none" xmlns="http://www.w3.org/2000/svg">
<circle cx="154.287" cy="153.959" r="151.67" fill="#0090FF" stroke="black" stroke-width="4"/>
<path d="M154.019 34.5055L154.042 34.506H154.064H245.283C260.476 47.0118 269.885 55.2247 277.028 64.0765C284.22 72.9894 289.177 82.632 295.322 98.1646C307.512 128.977 309.275 162.934 300.343 194.844C291.411 226.753 272.274 254.86 245.859 274.866C219.443 294.872 187.203 305.677 154.067 305.629C120.931 305.581 88.722 294.682 62.365 274.599C36.008 254.516 16.9531 226.354 8.11351 194.419C-0.72608 162.484 1.13606 128.532 13.4152 97.7549C25.5814 67.2611 41.6352 50.7141 64.674 32.5155L154.019 34.5055Z" fill="#B4003B" stroke="black" stroke-width="4"/>
<ellipse cx="154" cy="35" rx="93" ry="10" fill="#FF0054" stroke="black" stroke-width="4"/>
</svg>
